<?xml version="1.0" encoding="UTF-8"?>
<svg id="Layer_1" xmlns="http://www.w3.org/2000/svg" version="1.1" viewBox="0 0 350 167.91">
  <!-- Generator: Adobe Illustrator 30.3.0, SVG Export Plug-In . SVG Version: 2.1.3 Build 182)  -->
  <defs>
    <style>
      .st0 {
        fill: #ffb000;
      }

      .st1 {
        fill: #fff;
      }
    </style>
  </defs>
  <path class="st1" d="M105.39,34.48c-.21-2.95-2.33-5.71-5.1-6.48-.77-.22-1.56-.35-2.35-.46-.19-.02-.5.16-.61.34-.33.56-.6,1.15-.87,1.74-1.52,3.26-4.03,5.46-7.4,6.58-6.06,2.02-12.3,2.39-18.59,1.55-4.91-.66-9.82-1.26-14.78-.96-3.69.21-7.33.76-10.72,2.28-4.38,1.95-7.98,4.81-9.73,9.46-1.76,4.64-1.66,9.26,1.1,13.51,2.76,4.24,6.95,5.7,11.86,5.42.84-.05,1.68-.08,2.61-.13-.09.22-.13.34-.19.44-2.83,4.88-5.61,9.79-8.51,14.63-2.01,3.35-4.28,6.53-7.18,9.19-1.35,1.24-2.83,2.31-4.62,2.85-2.11.64-3.72.03-4.88-1.84-1.67-2.71-1.18-6.62,1.12-9.26,1.23-1.43,2.75-2.1,4.62-2.07,1.22.02,1.64.29,1.89,1.47.17.86.22,1.74.31,2.6.12,1.2.23,2.4.37,3.84,1.98-1.52,3.88-2.81,5.58-4.34,1.7-1.52,2.54-3.57,2.59-5.88.1-4.07-1.94-6.93-5.29-8.95-3.11-1.88-6.52-2.35-10.11-1.89-4.96.64-8.94,2.87-11.68,7.12-2.85,4.4-3.84,9.24-3.15,14.4.59,4.42,2.46,8.2,6.08,11.04,5.53,3.58,11.42,4.64,17.72,2.72,4.82-1.47,8.53-4.59,11.81-8.29,3.65-4.13,6.54-8.77,9.19-13.56,6.34-11.46,13.01-22.72,20.46-33.51.36-.52.71-.68,1.34-.66,4.15.14,8.29.22,12.4-.56,4.2-.78,8.07-2.26,11.4-5,2.3-1.9,3.53-4.28,3.31-7.34ZM48.02,60.05c-1.74-2.75-1.6-5.5.15-8.23,1.45-2.27,3.38-3.92,5.82-5.01,2.71-1.27,5.46-1.33,8.25-1.13.75.06,1.49.14,2.37.22-5.02,6-8.77,12.69-12.64,19.43-.31-.38-.6-.7-.86-1.05-1.04-1.4-2.15-2.76-3.09-4.23Z"/>
  <path class="st1" d="M174.14,60.91c-1.12.07-1.96.33-2.31,1.5-.09.31-.29.59-.46.86-2.03,3.23-4.07,6.46-6.1,9.69-.02.02-.03.04-.06.06.01-.03.03-.05.03-.09-.05-.04-.07-.06-.1-.04,0-.02,0-.03,0-.05.93-2.1,1.86-4.09,2.69-6.12.96-2.35,1.63-4.77,1.48-7.36-.17-2.81-2.09-5.09-4.85-5.64-3.36-.66-6.45.13-9.29,1.96-1.19.76-2.29,1.65-3.48,2.52-1.03-1.91-2.76-2.93-4.89-3.05-1.5-.08-3.04.1-4.53.36-1.03.18-2.01.69-3.06,1.07-.15-.29-.3-.59-.49-.95-2.77.67-5.59.72-8.41.69-.23,0-.55.23-.69.45-1.63,2.63-3.38,5.2-4.82,7.94-1.96,3.75-4.2,7.32-6.61,10.78-1.31,1.87-2.81,3.62-4.22,5.43-.03.02-.05.03-.08.05.02-.02.04-.05.05-.08-.06-.05-.08-.07-.12-.04-.01-.02,0-.04,0-.06.1-.26.15-.42.22-.59,1.8-4.42,4.34-8.43,7.07-12.32,2.48-3.53,5.25-6.87,6.83-10.96.1-.25.21-.48.37-.84-.6.1-1.06.18-1.53.26-3.65.67-7.27,1.7-11.03,1.41-1.47-.12-2.35.39-2.87,1.7-.93-.38-1.78-.86-2.68-1.07-2.24-.52-4.42-.05-6.54.69-4.07,1.43-7.59,3.77-10.76,6.65-.32.29-.65.57-1.05.91-.05-.26-.08-.37-.1-.49-.37-3.32-2.29-5.27-5.55-5.69-2.8-.36-5.42.33-7.93,1.46-7.58,3.41-13.16,8.94-17.02,16.25-1.98,3.75-3,7.71-2.38,11.99.52,3.64,2.95,6.42,6.34,7.15,2.24.48,4.42.18,6.52-.73,2.73-1.19,5.13-2.89,7.42-4.75,1.22-.99,2.39-2.03,3.64-3.1.1.32.17.58.26.83,1.17,3.59,4.05,5.69,7.81,5.75,3.16.05,5.91-1.07,8.41-2.91.88-.64,1.71-1.37,2.59-2.07.07.12.14.23.2.33,1.25,2.25,3.16,3.32,5.71,3.31,1.87-.01,3.59-.55,5.22-1.41.03-.02.06-.03.08-.04-.02.02-.04.04-.05.06.05.05.07.07.11.05,0,.02,0,.04-.01.06-.05.26-.08.42-.11.65,4.47-.42,8.88-.83,13.32-1.24-.12-1.45-.4-2.82.2-4.14.23-.5.39-1.02.6-1.53,2.41-5.79,5-11.49,8.74-16.58,1.33-1.81,2.69-3.6,4.56-4.92.03,0,.06-.02.09-.03-.03.02-.05.04-.06.07.07.05.09.07.14.05,0,.01-.01.03-.01.05-1.8,3.76-3.62,7.4-5.29,11.11-1.2,2.66-1.95,5.46-1.86,8.42.14,4.68,3.63,7.39,8.13,6.17,1.86-.5,3.62-1.41,5.42-2.14.15-.06.28-.17.45-.28-.5-.53-.91-1.1-1.44-1.49-1.69-1.21-1.65-2.73-.9-4.41.05-.11.08-.24.13-.35,1.54-3.83,3.47-7.47,5.63-10.99,1.54-2.5,3.31-4.81,5.49-6.8.28-.25.58-.48.87-.72.05.04.1.08.15.12-.5.99-.99,1.99-1.51,2.98-1.82,3.49-3.64,7-4.79,10.8-.68,2.23-1.13,4.51-.68,6.86.6,3.17,2.73,5.08,5.73,5.12,2.76.04,5.11-1.03,7.19-2.75,2.55-2.09,4.71-4.57,6.48-7.34,3.99-6.22,7.86-12.52,11.77-18.79.06-.09.07-.2.11-.34-2.56.23-5.04.51-7.53.67ZM103.33,72.43c-1.65,2.49-3.94,4.72-6.58,6.79-.25.12-.35.15-.45.19-.01-.05-.02-.1-.03-.15,1.85-2.6,4.24-4.81,7.06-6.83ZM75.54,74.77c-.08.04-.12.06-.16.07.02-.02.03-.03.04-.05-.04-.05-.06-.07-.11-.06-.03.06-.03.1-.03.14v-.12c1.17-1.79,2.6-3.23,4.24-4.48-1.06,1.74-2.43,3.2-3.98,4.5ZM70.74,85.18c.01-.14.23-.32.38-.35,1.66-.28,3.32-.54,5.06-.82-1.52,1.22-3.06,2.41-4.78,3.34-.31.13-.51.21-.9.36.08-.93.13-1.74.24-2.53Z"/>
  <path class="st1" d="M323.62,59.73c2.68-4.33,5.43-8.8,8.26-13.38-.54.03-.87.04-1.19.07-2.44.23-4.88.45-7.31.72-.33.03-.74.27-.93.55-.75,1.06-1.4,2.19-2.13,3.26-2.54,3.77-4.83,7.71-7.84,11.15-.14.17-.3.32-.55.6.02-.27.02-.35.04-.41.16-.42.31-.85.5-1.26,2.19-4.93,5.11-9.45,8.36-13.73,2.03-2.67,3.77-5.45,5-8.57.11-.29.25-.57.41-.94-.32.04-.51.04-.7.08-4.34.85-8.66,1.85-13.13,1.61-.23-.02-.56.21-.69.42-3.58,5.95-7.08,11.94-10.14,18.18-1.34,2.72-2.99,5.26-5.05,7.5-.43.46-.93.85-1.4,1.27-.05-.04-.11-.08-.17-.13.05-.34.07-.68.15-1.02.72-3.07,2.04-5.91,3.61-8.6,3.25-5.57,6.63-11.05,9.96-16.57.12-.19.23-.4.4-.68-4.4.41-8.68.84-12.96,1.16-1.07.08-1.69.57-2.2,1.39-.1.17-.21.34-.31.51-1.8,3.12-3.6,6.23-5.41,9.34-.1.18-.23.34-.4.59,0-1.15.04-2.17,0-3.19-.2-4.33-3.29-7.29-7.6-7.36-2.15-.03-4.17.46-6.11,1.3-6.63,2.89-11.57,7.63-15.23,13.81-1.49,2.51-3.09,4.95-4.73,7.37-.84,1.24-1.87,2.36-2.82,3.53-.07-.04-.13-.08-.2-.13.4-.92.77-1.87,1.21-2.78,2.6-5.35,6.15-10.1,9.59-14.92,1.6-2.24,2.85-4.72,4.33-7.21-.5-.03-.75-.05-1.02-.07.41-3.05-.46-5.52-3.2-7.04-2.35-1.3-4.76-1.19-6.91.43-2.93,2.23-3.27,5.16-1.84,8.44-.24,0-.42.03-.59,0-.72-.15-1.12.19-1.48.8-.83,1.42-1.75,2.79-2.64,4.18-.09.15-.21.28-.32.42.03-.7.19-1.35.32-2.01,1.11-5.22,1.37-10.45-.08-15.65-1.71-6.15-5.41-10.53-11.48-12.81-4.75-1.77-9.63-2.39-14.66-1.95-9.03.8-17.05,4.06-23.88,10.07-3.26,2.87-6.02,6.14-7.49,10.32-1.15,3.26-1.46,6.56-.04,9.8,1.82,4.12,5.23,6.14,9.53,6.88.67.12,1.34.2,1.88.28-1.73,3.58-3.42,7.1-5.14,10.68-.95,2.47-1.69,4.93-1.87,7.52-.35,4.75,1.42,8.37,5.76,10.14,1.64.67,3.38.9,5.13.91,4.7.01,9.24-.85,13.6-2.61,7.6-3.06,13.74-8.08,18.98-14.27.2-.24.41-.47.61-.71.05.45-.03.8-.13,1.16-.7,2.5-1.11,5.02-.68,7.62.63,3.82,3.71,6,7.53,5.45,2.91-.42,5.24-1.87,7.26-3.89,1.08-1.07,2.1-2.21,3.16-3.32.06.1.12.21.18.32,1.72,3.29,4.44,4.89,8.14,4.87,2.79-.03,5.27-1,7.55-2.55,4.16-2.84,7.36-6.58,10.09-10.76.13-.21.27-.41.42-.63.08,1.42.08,2.75.24,4.06.49,3.95,3.33,6.91,7.01,7.31,3.29.36,6.24-.51,8.82-2.59.48-.39.94-.8,1.44-1.23.96,1.49,2.25,2.42,3.95,2.67,2.78.42,5.32-.27,7.55-1.94.68-.52,1.35-.73,2.13-.51.93.25,1.96.4,2.72.92,1.23.86,1.44,3.08.46,4.5-.82,1.21-1.76,2.38-2.83,3.37-2.32,2.15-5.06,3.71-7.89,5.11-5.37,2.66-11.03,4.41-16.86,5.66-7.1,1.53-14.32,2.08-21.53,2.65-4.21.32-8.42.56-12.64.8-3.26.19-6.53.31-9.8.46-3.71.18-7.42.38-11.14.53-3.64.15-7.29.23-10.93.34-3.25.1-6.49.2-9.73.28-4.62.11-9.24.28-13.86.31-14,.08-28,.1-42,.16-3.27.01-6.55.08-9.82.13-1.8.03-3.6.05-5.39.12-5.57.2-11.13.42-16.69.65-3.94.17-7.88.31-11.82.55-4.51.26-9.02.58-13.52.94-5.6.45-11.21.82-16.78,1.47-8.06.95-16.11,1.98-24.12,3.22-9.17,1.43-18.22,3.42-27.02,6.42-4.76,1.63-9.39,3.57-13.59,6.38-2.43,1.62-4.6,3.53-6.26,5.97-1.08,1.58-.65,3.63.95,4.45,1.05.54,2.12,1.01,3.19,1.5,5.2,2.39,10.4,4.77,15.59,7.15,3.54,1.63,7.07,3.29,10.62,4.9,1.59.72,3.31.14,4.05-1.43,1.34-2.84,3.49-4.97,5.88-6.89,3.61-2.9,7.67-5.04,11.94-6.8,5.95-2.47,12.13-4.19,18.46-5.33,5.23-.94,10.5-1.73,15.76-2.44,6.09-.83,12.19-1.55,18.29-2.22,5.06-.55,10.13-.99,15.21-1.42,5.96-.51,11.94-.97,17.91-1.41,4.18-.3,8.37-.53,12.56-.78,3.61-.22,7.22-.43,10.84-.61,3.39-.18,6.78-.32,10.17-.47,3.52-.16,7.03-.33,10.55-.46,2.97-.11,5.94-.18,8.91-.28,4.87-.16,9.73-.35,14.6-.51,3.69-.13,7.39-.2,11.08-.37,5.33-.25,10.67-.51,16-.88,5.03-.34,10.05-.78,15.07-1.29,7.35-.74,14.67-1.83,21.93-3.24,8.96-1.74,17.79-3.96,26.21-7.59,5-2.15,9.78-4.71,13.79-8.47,4.84-4.52,8.05-9.89,8.35-16.69.18-3.81-.98-7.17-3.68-9.87-1.08-1.07-2.42-1.88-3.64-2.81ZM267.73,69.53c-.1-.04-.2-.08-.29-.12,0-.85-.09-1.71,0-2.54.42-3.66,1.66-7.03,3.67-10.11,1.17-1.81,2.69-3.27,4.44-4.52.19-.14.41-.25.74-.44-.03,1.55.43,2.81,1.5,3.79.16.46.26.84.34,1.23,0,.06-.04.14-.07.21-1.84,4.64-4.67,8.57-8.63,11.63-.5.38-1.13.58-1.7.87ZM203.34,43.95c-.31-3.2.71-6,2.64-8.51,3.86-4.85,8.99-7.11,15-8.01-5.06,7.57-10.05,15.02-15.09,22.54-1.37-1.84-2.34-3.77-2.55-6.02ZM206.89,73.61c1.36-2.99,2.71-5.99,4.14-8.96.6-1.26,1.36-2.44,2.05-3.66,6.26-10.68,13.24-20.77,20.38-30.92.54.58,1.09,1.11,1.55,1.7,1.41,1.84,2.08,3.96,2.23,6.26.26,3.92-.6,7.65-2.08,11.24-3.39,8.25-8.37,15.33-15.69,20.58-3.51,2.52-7.37,4.29-11.68,4.96-.37.05-.73.09-1.26.15.13-.52.18-.96.36-1.35Z"/>
  <g>
    <path class="st0" d="M323.62,59.73c2.68-4.33,5.43-8.8,8.26-13.38-.54.03-.87.04-1.19.07-2.44.23-4.88.45-7.31.72-.33.03-.74.27-.93.55-.75,1.06-1.4,2.19-2.13,3.26-2.54,3.77-4.83,7.71-7.84,11.15-.14.17-.3.32-.55.6.02-.27.02-.35.04-.41.16-.42.31-.85.5-1.26,2.19-4.93,5.11-9.45,8.36-13.73,2.03-2.67,3.77-5.45,5-8.57.11-.29.25-.57.41-.94-.32.04-.51.04-.7.08-4.34.85-8.66,1.85-13.13,1.61-.23-.02-.56.21-.69.42-3.58,5.95-7.08,11.94-10.14,18.18-1.34,2.72-2.99,5.26-5.05,7.5-.43.46-.93.85-1.4,1.27-.05-.04-.11-.08-.17-.13.05-.34.07-.68.15-1.02.72-3.07,2.04-5.91,3.61-8.6,3.25-5.57,6.63-11.05,9.96-16.57.12-.19.23-.4.4-.68-4.4.41-8.68.84-12.96,1.16-1.07.08-1.69.57-2.2,1.39-.1.17-.21.34-.31.51-1.8,3.12-3.6,6.23-5.41,9.34-.1.18-.23.34-.4.59,0-1.15.04-2.17,0-3.19-.2-4.33-3.29-7.29-7.6-7.36-2.15-.03-4.17.46-6.11,1.3-6.63,2.89-11.57,7.63-15.23,13.81-1.49,2.51-3.09,4.95-4.73,7.37-.84,1.24-1.87,2.36-2.82,3.53-.07-.04-.13-.08-.2-.13.4-.92.77-1.87,1.21-2.78,2.6-5.35,6.15-10.1,9.59-14.92,1.6-2.24,2.85-4.72,4.33-7.21-.5-.03-.75-.05-1.02-.07.41-3.05-.46-5.52-3.2-7.04-2.35-1.3-4.76-1.19-6.91.43-2.93,2.23-3.27,5.16-1.84,8.44-.24,0-.42.03-.59,0-.72-.15-1.12.19-1.48.8-.83,1.42-1.75,2.79-2.64,4.18-.09.15-.21.28-.32.42.03-.7.19-1.35.32-2.01,1.11-5.22,1.37-10.45-.08-15.65-1.71-6.15-5.41-10.53-11.48-12.81-4.75-1.77-9.63-2.39-14.66-1.95-9.03.8-17.05,4.06-23.88,10.07-3.26,2.87-6.02,6.14-7.49,10.32-1.15,3.26-1.46,6.56-.04,9.8,1.82,4.12,5.23,6.14,9.53,6.88.67.12,1.34.2,1.88.28-1.73,3.58-3.42,7.1-5.14,10.68-.95,2.47-1.69,4.93-1.87,7.52-.35,4.75,1.42,8.37,5.76,10.14,1.64.67,3.38.9,5.13.91,4.7.01,9.24-.85,13.6-2.61,7.6-3.06,13.74-8.08,18.98-14.27.2-.24.41-.47.61-.71.05.45-.03.8-.13,1.16-.7,2.5-1.11,5.02-.68,7.62.63,3.82,3.71,6,7.53,5.45,2.91-.42,5.24-1.87,7.26-3.89,1.08-1.07,2.1-2.21,3.16-3.32.06.1.12.21.18.32,1.72,3.29,4.44,4.89,8.14,4.87,2.79-.03,5.27-1,7.55-2.55,4.16-2.84,7.36-6.58,10.09-10.76.13-.21.27-.41.42-.63.08,1.42.08,2.75.24,4.06.49,3.95,3.33,6.91,7.01,7.31,3.29.36,6.24-.51,8.82-2.59.48-.39.94-.8,1.44-1.23.96,1.49,2.25,2.42,3.95,2.67,2.78.42,5.32-.27,7.55-1.94.68-.52,1.35-.73,2.13-.51.93.25,1.96.4,2.72.92,1.23.86,1.44,3.08.46,4.5-.82,1.21-1.76,2.38-2.83,3.37-2.32,2.15-5.06,3.71-7.89,5.11-5.37,2.66-11.03,4.41-16.86,5.66-7.1,1.53-14.32,2.08-21.53,2.65-4.21.32-8.42.56-12.64.8-3.26.19-6.53.31-9.8.46-3.71.18-7.42.38-11.14.53-3.64.15-7.29.23-10.93.34-3.25.1-6.49.2-9.73.28-4.62.11-9.24.28-13.86.31-14,.08-28,.1-42,.16-3.27.01-6.55.08-9.82.13-1.8.03-3.6.05-5.39.12-5.57.2-11.13.42-16.69.65-3.94.17-7.88.31-11.82.55-4.51.26-9.02.58-13.52.94-5.6.45-11.21.82-16.78,1.47-8.06.95-16.11,1.98-24.12,3.22-9.17,1.43-18.22,3.42-27.02,6.42-4.76,1.63-9.39,3.57-13.59,6.38-2.43,1.62-4.6,3.53-6.26,5.97-1.08,1.58-.65,3.63.95,4.45,1.05.54,2.12,1.01,3.19,1.5,5.2,2.39,10.4,4.77,15.59,7.15,3.54,1.63,7.07,3.29,10.62,4.9,1.59.72,3.31.14,4.05-1.43,1.34-2.84,3.49-4.97,5.88-6.89,3.61-2.9,7.67-5.04,11.94-6.8,5.95-2.47,12.13-4.19,18.46-5.33,5.23-.94,10.5-1.73,15.76-2.44,6.09-.83,12.19-1.55,18.29-2.22,5.06-.55,10.13-.99,15.21-1.42,5.96-.51,11.94-.97,17.91-1.41,4.18-.3,8.37-.53,12.56-.78,3.61-.22,7.22-.43,10.84-.61,3.39-.18,6.78-.32,10.17-.47,3.52-.16,7.03-.33,10.55-.46,2.97-.11,5.94-.18,8.91-.28,4.87-.16,9.73-.35,14.6-.51,3.69-.13,7.39-.2,11.08-.37,5.33-.25,10.67-.51,16-.88,5.03-.34,10.05-.78,15.07-1.29,7.35-.74,14.67-1.83,21.93-3.24,8.96-1.74,17.79-3.96,26.21-7.59,5-2.15,9.78-4.71,13.79-8.47,4.84-4.52,8.05-9.89,8.35-16.69.18-3.81-.98-7.17-3.68-9.87-1.08-1.07-2.42-1.88-3.64-2.81ZM256.19,39.4c1.06-1.17,2.38-1.48,3.88-1.04.17.05.32.13.48.2,1.63,1.04,2.25,2.49,1.84,4.08-.39,1.47-1.69,2.58-3.16,2.69-1.5.11-2.86-.64-3.52-1.94-.67-1.31-.5-2.92.48-3.99ZM234.03,68.77c-4.75,4.92-10.18,8.83-16.68,11.12-3.61,1.26-7.34,1.9-11.17,1.86-1.58-.01-3.13-.25-4.58-.95-2.63-1.27-3.72-3.63-3.43-7.04.36-4.24,2.09-8.04,4-11.76,3.06-5.97,6.81-11.52,10.52-17.09,3.31-4.94,6.63-9.87,9.97-14.79.16-.24.54-.48.81-.48,2.34.04,4.64-.18,6.92-.65.07-.02.15.01.34.03-.22.33-.41.61-.61.88-6.36,8.97-12.54,18.06-18.21,27.48-2.67,4.45-5.28,8.95-7.15,13.82-.56,1.47-.93,3.06-1.12,4.62-.2,1.6.58,2.22,2.21,2.09,6.88-.55,12.74-3.46,17.96-7.83.84-.71,1.63-1.47,2.45-2.21,6.15-6.3,10.65-13.46,12.96-21.9,1.09-3.96,1.42-7.99.1-11.96-1.71-5.15-5.44-8.26-10.65-9.14-9.23-1.56-17.41.82-23.97,7.7-2.95,3.1-4.5,6.87-4.22,11.25.19,2.95,1.41,5.48,3.11,7.83.18.25.37.51.58.79-5.38.3-10.16-2.14-11.12-6.99-.58-2.9.17-5.6,1.5-8.16,1.8-3.46,4.48-6.18,7.53-8.53,6.05-4.66,12.92-7.29,20.53-7.92,5.3-.44,10.43.27,15.24,2.61,4.33,2.1,6.74,5.75,7.94,10.27,1.33,5,.96,10-.21,14.98-1.83,7.85-6.02,14.34-11.55,20.07ZM205.89,49.97c-1.37-1.84-2.34-3.77-2.55-6.02-.31-3.2.71-6,2.64-8.51,3.86-4.85,8.99-7.11,15-8.01-5.06,7.57-10.05,15.02-15.09,22.54ZM233.46,30.07c.54.58,1.09,1.11,1.55,1.7,1.41,1.84,2.08,3.96,2.23,6.26.26,3.92-.6,7.65-2.08,11.24-3.39,8.25-8.37,15.33-15.69,20.58-3.51,2.52-7.37,4.29-11.68,4.96-.37.05-.73.09-1.26.15.13-.52.18-.96.36-1.35,1.36-2.99,2.71-5.99,4.14-8.96.6-1.26,1.36-2.44,2.05-3.66,6.26-10.68,13.24-20.77,20.38-30.92ZM283.46,57.9c-2.61,6.27-6.38,11.69-11.83,15.84-1.67,1.27-3.48,2.23-5.6,2.54-4.04.58-6.99-1.61-7.47-5.66-.15-1.26-.13-2.54-.19-3.79-.11.15-.28.37-.44.6-2.27,3.15-4.57,6.26-7.54,8.8-1.26,1.07-2.65,1.84-4.31,2.13-2.86.49-4.64-.93-4.79-3.85-.16-3.01.49-5.91,1.77-8.57,1.79-3.73,3.81-7.35,5.83-10.97,1.24-2.22,2.67-4.33,3.99-6.51.26-.43.55-.63,1.08-.6,2.05.15,4.08-.09,6.09-.54.19-.04.38-.03.74-.06-.42.58-.74,1.04-1.08,1.49-3.33,4.44-6.57,8.94-9.16,13.87-1.63,3.08-2.9,6.3-3.48,9.76-.08.49-.1.99-.08,1.49.05.99.67,1.36,1.52.84.8-.5,1.58-1.08,2.25-1.74,2.72-2.66,5.16-5.57,7.23-8.77,1.8-2.83,3.38-5.68,5.28-8.3,3.4-4.69,7.72-8.3,13.3-10.16,1.16-.39,2.44-.55,3.67-.57,2.75-.03,4.51,1.72,4.72,4.48.22,2.89-.4,5.63-1.5,8.25ZM310.71,70.93c-1.43,1.3-3.21,1.89-5.17,1.85-1.32-.02-2.28-.61-2.86-1.82-.61-1.28-.69-2.64-.62-4.03.01-.12,0-.24,0-.55-.24.33-.4.53-.55.73-1.38,1.94-2.91,3.76-4.87,5.16-1.96,1.4-4.18,1.91-6.54,1.48-2.17-.39-3.7-2.18-4.09-4.62-.56-3.44.11-6.73,1.69-9.73,2.69-5.1,5.59-10.09,8.41-15.12.11-.19.35-.41.54-.43,2.24-.23,4.48-.42,6.72-.62.04,0,.09.03.21.07-.16.26-.31.51-.47.76-3.06,4.92-6.21,9.79-8.59,15.09-.92,2.06-1.59,4.24-2.25,6.4-.22.71-.16,1.55-.04,2.3.24,1.41,1.48,2.18,3.01,1.84.75-.17,1.57-.51,2.11-1.03,1.22-1.18,2.35-2.45,3.38-3.79,2.16-2.81,3.57-6.06,5.26-9.15,2.37-4.33,4.85-8.61,7.3-12.9.14-.24.46-.49.71-.51,2.43-.21,4.86-.37,7.3-.54-.29.42-.62.95-1.01,1.45-3.48,4.56-6.7,9.27-9.34,14.37-1.49,2.88-2.56,5.91-3.1,9.11-.09.53-.12,1.09-.09,1.64.06.86.67,1.25,1.39.8.92-.58,1.83-1.24,2.59-2.01,2.86-2.85,5.33-6.02,7.53-9.41.91-1.4,1.84-2.79,2.77-4.19.65-1.01,1.29-1.91,1.83-2.87.34-.61.75-.93,1.47-.89.31.02.64-.06,1.04-.11-.07.19-.08.33-.15.44-3.38,5.58-6.79,11.14-10.97,16.18-1.38,1.66-2.95,3.18-4.55,4.65ZM325.48,80.87c-2.14,3.93-5.3,6.86-8.96,9.3-4.93,3.28-10.34,5.53-15.93,7.4-7.2,2.4-14.56,4.11-22.04,5.35-5,.83-10.03,1.49-15.04,2.22-3.89.42-7.63.88-11.39,1.2-4.35.37-8.71.7-13.08.89-8.79.39-17.58.69-26.37,1.01-4.63.17-9.25.27-13.87.47-9.64.41-19.27.85-28.9,1.32-5.42.26-10.83.56-16.24.93-6.14.41-12.26.86-18.39,1.39-7.24.63-14.48,1.3-21.71,2.06-4.57.47-9.12,1.08-13.67,1.71-5.15.71-10.3,1.41-15.41,2.3-7.31,1.27-14.45,3.18-21.27,6.14-5.47,2.36-10.64,5.25-14.77,9.65-1.33,1.43-2.34,3.16-3.49,4.75-.09.12-.17.24-.28.41-9.78-4.49-19.53-8.98-29.43-13.54.6-.74,1.12-1.46,1.73-2.1,2.72-2.85,6.06-4.79,9.6-6.43,7.99-3.7,16.45-5.89,25.04-7.56,6.86-1.34,13.77-2.49,20.69-3.44,6.78-.93,13.6-1.58,20.42-2.19,7.69-.67,15.39-1.2,23.09-1.71,4.11-.28,8.24-.43,12.36-.55,11.94-.35,23.88-.77,35.82-.95,10.75-.16,21.5.02,32.25-.09,10.03-.11,20.05-.37,30.07-.65,7.69-.22,15.38-.52,23.07-.89,6.69-.32,13.38-.73,20.06-1.2,6.37-.45,12.75-1.01,19.03-2.24,8.74-1.71,17.15-4.36,24.66-9.31,2.4-1.58,4.58-3.4,6.2-5.81.99-1.48,1.56-3.07,1.37-4.88-.29-2.85-1.76-4.61-4.52-5.4-.15-.05-.29-.08-.49-.13.07-.14.1-.25.17-.33,1.83-2.35,3.68-4.67,5.48-7.04.34-.46.61-.53,1.1-.3,3.4,1.62,5.14,4.43,5.55,8.07.41,3.68-.78,7-2.51,10.17Z"/>
    <path class="st0" d="M174.14,60.91c-1.12.07-1.96.33-2.31,1.5-.09.31-.29.59-.46.86-2.03,3.23-4.07,6.46-6.1,9.69-.02.02-.03.04-.06.06-.02.03-.04.05-.06.08-.01-.04-.02-.08-.02-.14,0-.02,0-.04,0-.07,0-.02,0-.03,0-.05.93-2.1,1.86-4.09,2.69-6.12.96-2.35,1.63-4.77,1.48-7.36-.17-2.81-2.09-5.09-4.85-5.64-3.36-.66-6.45.13-9.29,1.96-1.19.76-2.29,1.65-3.48,2.52-1.03-1.91-2.76-2.93-4.89-3.05-1.5-.08-3.04.1-4.53.36-1.03.18-2.01.69-3.06,1.07-.15-.29-.3-.59-.49-.95-2.77.67-5.59.72-8.41.69-.23,0-.55.23-.69.45-1.63,2.63-3.38,5.2-4.82,7.94-1.96,3.75-4.2,7.32-6.61,10.78-1.31,1.87-2.81,3.62-4.22,5.43-.03.02-.05.03-.08.05-.02.02-.05.04-.07.05-.01-.03-.01-.06-.01-.11,0-.02,0-.04.01-.06-.01-.02,0-.04,0-.06.1-.26.15-.42.22-.59,1.8-4.42,4.34-8.43,7.07-12.32,2.48-3.53,5.25-6.87,6.83-10.96.1-.25.21-.48.37-.84-.6.1-1.06.18-1.53.26-3.65.67-7.27,1.7-11.03,1.41-1.47-.12-2.35.39-2.87,1.7-.93-.38-1.78-.86-2.68-1.07-2.24-.52-4.42-.05-6.54.69-4.07,1.43-7.59,3.77-10.76,6.65-.32.29-.65.57-1.05.91-.05-.26-.08-.37-.1-.49-.37-3.32-2.29-5.27-5.55-5.69-2.8-.36-5.42.33-7.93,1.46-7.58,3.41-13.16,8.94-17.02,16.25-1.98,3.75-3,7.71-2.38,11.99.52,3.64,2.95,6.42,6.34,7.15,2.24.48,4.42.18,6.52-.73,2.73-1.19,5.13-2.89,7.42-4.75,1.22-.99,2.39-2.03,3.64-3.1.1.32.17.58.26.83,1.17,3.59,4.05,5.69,7.81,5.75,3.16.05,5.91-1.07,8.41-2.91.88-.64,1.71-1.37,2.59-2.07.07.12.14.23.2.33,1.25,2.25,3.16,3.32,5.71,3.31,1.87-.01,3.59-.55,5.22-1.41.03-.02.06-.03.08-.04.02-.01.04-.02.06-.03,0,.03.02.07,0,.14,0,.02,0,.04-.01.06-.05.26-.08.42-.11.65,4.47-.42,8.88-.83,13.32-1.24-.12-1.45-.4-2.82.2-4.14.23-.5.39-1.02.6-1.53,2.41-5.79,5-11.49,8.74-16.58,1.33-1.81,2.69-3.6,4.56-4.92.03,0,.06-.02.09-.03.02-.02.05-.03.08-.04.01.04.02.08,0,.16,0,.01-.01.03-.01.05-1.8,3.76-3.62,7.4-5.29,11.11-1.2,2.66-1.95,5.46-1.86,8.42.14,4.68,3.63,7.39,8.13,6.17,1.86-.5,3.62-1.41,5.42-2.14.15-.06.28-.17.45-.28-.5-.53-.91-1.1-1.44-1.49-1.69-1.21-1.65-2.73-.9-4.41.05-.11.08-.24.13-.35,1.54-3.83,3.47-7.47,5.63-10.99,1.54-2.5,3.31-4.81,5.49-6.8.28-.25.58-.48.87-.72.05.04.1.08.15.12-.5.99-.99,1.99-1.51,2.98-1.82,3.49-3.64,7-4.79,10.8-.68,2.23-1.13,4.51-.68,6.86.6,3.17,2.73,5.08,5.73,5.12,2.76.04,5.11-1.03,7.19-2.75,2.55-2.09,4.71-4.57,6.48-7.34,3.99-6.22,7.86-12.52,11.77-18.79.06-.09.07-.2.11-.34-2.56.23-5.04.51-7.53.67ZM176.22,63.91c-3.15,5.24-6.17,10.58-9.93,15.42-1.42,1.83-3.07,3.48-4.72,5.11-1.08,1.06-2.44,1.72-3.94,2.05-2.72.59-4.4-.67-4.55-3.45-.11-2.3.43-4.49,1.34-6.55,1.55-3.49,3.29-6.89,4.9-10.35.79-1.72,1.6-3.44,2.19-5.23.53-1.62-.25-2.32-1.93-1.97-1.5.31-2.67,1.2-3.82,2.13-3.52,2.83-6.21,6.37-8.35,10.3-1.74,3.2-3.3,6.49-4.84,9.79-.46,1-.63,2.15-.82,3.25-.19,1.08.11,2.08.87,3-1.37.69-2.74,1.02-4.2.63-1.21-.32-2.08-1.81-2.14-3.56-.08-2.24.46-4.38,1.34-6.4,1.4-3.23,2.95-6.39,4.45-9.57.69-1.47,1.43-2.91,2.08-4.4.29-.65.46-1.37.6-2.08.21-1.08-.27-1.67-1.37-1.57-.76.06-1.54.27-2.21.6-2.35,1.15-4.23,2.9-5.89,4.91-3.26,3.95-5.81,8.36-7.97,12.99-.92,1.99-1.81,4-2.64,6.03-.59,1.45-1.06,2.95-1.63,4.55-1.87.17-3.89.36-6.07.56,1.18-3.25,2.3-6.35,3.42-9.46-.02-.01-.05-.02-.07-.03-1.09,1.4-2.09,2.87-3.28,4.17-1.51,1.66-3.12,3.23-4.77,4.75-.91.84-2.08,1.25-3.31,1.49-2.86.54-4.72-.83-4.91-3.73-.08-1.19-.01-2.39-.01-3.58-.06.06-.19.18-.29.31-1.96,2.46-4.12,4.71-6.73,6.48-1.7,1.16-3.56,1.91-5.65,1.95-3.4.06-5.64-1.83-5.91-5.23-.13-1.57.11-3.17.2-4.76.01-.21.05-.42.08-.63-.07-.05-.14-.11-.21-.16-.15.22-.27.47-.46.66-3.32,3.52-6.77,6.88-10.81,9.57-1.75,1.17-3.53,2.3-5.66,2.65-4.03.67-6.77-1.56-7.04-5.65-.17-2.7.29-5.3,1.41-7.73,3.37-7.35,8.6-12.95,15.95-16.41,1.56-.73,3.3-1.12,5-1.47.89-.17,1.89,0,2.8.19,1.32.29,1.99,1.27,2.17,2.57.21,1.61-.29,3.07-1,4.47-2.02,4-5.19,6.87-9.06,9-2.42,1.34-4.97,2.34-7.78,2.46-.8.03-1.59,0-2.47,0-.58,2.03-1.18,4.12-.72,6.33.39,1.84,1.74,2.67,3.53,2.05,1.07-.37,2.11-.92,3.05-1.56,5.08-3.44,9.45-7.69,13.46-12.32.95-1.1,1.57-2.49,2.45-3.67,3.62-4.87,8.11-8.66,13.82-10.89,1.52-.6,3.09-.98,4.75-.87,1.74.11,2.72.98,2.89,2.73.09.91.02,1.84.02,2.91.18-.26.31-.42.42-.6.98-1.65,1.95-3.31,2.95-4.95.13-.22.41-.47.64-.49,2.36-.25,4.72-.44,7.07-.65.08-.01.15,0,.36,0-.29.43-.51.8-.76,1.14-3.19,4.21-6.22,8.52-8.78,13.14-1.81,3.28-3.24,6.69-3.92,10.39-.12.7-.19,1.45-.11,2.15.08.81.63,1.07,1.35.67.67-.37,1.33-.81,1.88-1.34,2.63-2.47,4.94-5.23,7.02-8.17,3.2-4.52,5.98-9.27,8.58-14.15.79-1.47,1.76-2.85,2.67-4.25.12-.2.39-.4.61-.43,2.33-.23,4.67-.42,7-.62h.01c-1.59,2.08-3.2,4.19-4.8,6.31,0,.08,0,.12.01.14l.02.02c1.49-1.72,2.95-3.47,4.84-4.79,2.16-1.51,4.5-2.45,7.2-2.3,2.33.13,3.63,1.38,3.55,3.72-.04,1.21-.36,2.41-.57,3.61-.05.31-.15.61-.1.98.15-.19.29-.38.43-.57,1.66-2.36,3.37-4.67,5.67-6.46,2-1.56,4.17-2.76,6.79-2.83.67-.02,1.36,0,2.01.14,1.54.3,2.46,1.4,2.59,2.97.14,1.6-.11,3.18-.72,4.63-1.37,3.27-2.8,6.5-4.3,9.71-1.07,2.31-2.22,4.58-2.69,7.12-.04.19-.06.4-.05.59.07.78.47,1.08,1.16.69.86-.48,1.7-1.04,2.45-1.68,2.14-1.86,4.08-3.92,5.6-6.33,2.07-3.3,4.1-6.62,6.17-9.92.15-.25.48-.46.77-.54.45-.12.93-.11,1.46-.16-.04.15-.04.25-.09.33ZM76.37,83.81s-.01.01-.02.01c-.02.01-.03-.03-.03-.03,0,0,.03.01.03.02h.02ZM76.18,84.01c-1.52,1.22-3.06,2.41-4.78,3.34-.31.13-.51.21-.9.36.08-.93.13-1.74.24-2.53.01-.14.23-.32.38-.35,1.66-.28,3.32-.54,5.06-.82Z"/>
    <path class="st0" d="M105.39,34.48c-.21-2.95-2.33-5.71-5.1-6.48-.77-.22-1.56-.35-2.35-.46-.19-.02-.5.16-.61.34-.33.56-.6,1.15-.87,1.74-1.52,3.26-4.03,5.46-7.4,6.58-6.06,2.02-12.3,2.39-18.59,1.55-4.91-.66-9.82-1.26-14.78-.96-3.69.21-7.33.76-10.72,2.28-4.38,1.95-7.98,4.81-9.73,9.46-1.76,4.64-1.66,9.26,1.1,13.51,2.76,4.24,6.95,5.7,11.86,5.42.84-.05,1.68-.08,2.61-.13-.09.22-.13.34-.19.44-2.83,4.88-5.61,9.79-8.51,14.63-2.01,3.35-4.28,6.53-7.18,9.19-1.35,1.24-2.83,2.31-4.62,2.85-2.11.64-3.72.03-4.88-1.84-1.67-2.71-1.18-6.62,1.12-9.26,1.23-1.43,2.75-2.1,4.62-2.07,1.22.02,1.64.29,1.89,1.47.17.86.22,1.74.31,2.6.12,1.2.23,2.4.37,3.84,1.98-1.52,3.88-2.81,5.58-4.34,1.7-1.52,2.54-3.57,2.59-5.88.1-4.07-1.94-6.93-5.29-8.95-3.11-1.88-6.52-2.35-10.11-1.89-4.96.64-8.94,2.87-11.68,7.12-2.85,4.4-3.84,9.24-3.15,14.4.59,4.42,2.46,8.2,6.08,11.04,5.53,3.58,11.42,4.64,17.72,2.72,4.82-1.47,8.53-4.59,11.81-8.29,3.65-4.13,6.54-8.77,9.19-13.56,6.34-11.46,13.01-22.72,20.46-33.51.36-.52.71-.68,1.34-.66,4.15.14,8.29.22,12.4-.56,4.2-.78,8.07-2.26,11.4-5,2.3-1.9,3.53-4.28,3.31-7.34ZM48.02,60.05c-1.74-2.75-1.6-5.5.15-8.23,1.45-2.27,3.38-3.92,5.82-5.01,2.71-1.27,5.46-1.33,8.25-1.13.75.06,1.49.14,2.37.22-5.02,6-8.77,12.69-12.64,19.43-.31-.38-.6-.7-.86-1.05-1.04-1.4-2.15-2.76-3.09-4.23ZM100.42,39.49c-2.9,2.45-6.31,3.78-10,4.49-4.29.81-8.6.76-12.92.47-1.07-.07-1.68.17-2.31,1.08-7.81,11.3-14.81,23.08-21.45,35.09-2.49,4.5-5.23,8.87-8.68,12.73-3.19,3.57-6.8,6.53-11.56,7.66-4.83,1.15-9.42.32-13.58-2.32-2.96-1.88-4.51-4.83-5.19-8.2-1.01-4.92-.2-9.54,2.54-13.78,2.19-3.39,5.37-5.18,9.32-5.73,2.45-.35,4.85-.24,7.13.75,2.64,1.15,4.71,2.83,5.28,5.86.44,2.35-.8,5.06-2.8,6.18-.23-.89-.39-1.82-.72-2.69-.6-1.61-1.86-2.45-3.53-2.6-4.05-.35-6.98,1.45-8.87,4.92-1.72,3.15-2.16,6.47-.53,9.84,1.89,3.89,5.44,5.23,9.45,3.61,2.99-1.2,5.26-3.33,7.31-5.72,3.62-4.24,6.42-9.04,9.19-13.84,3.91-6.77,7.72-13.6,11.71-20.32,2.5-4.21,5.33-8.22,8.89-11.65.5-.48,1.02-.94,1.64-1.51-.98-.13-1.85-.28-2.73-.35-3.08-.24-6.18-.76-9.25-.62-5.96.27-10.53,3.11-13.49,8.37-1.86,3.29-1.74,6.59.07,9.85.56,1,1.24,1.93,1.87,2.89.13.2.27.39.43.61-4.32.43-8.4-1.86-9.93-6.06-1.65-4.5-.59-10.74,4.51-14.56,2.89-2.16,6.13-3.29,9.63-3.87.32-.05.64-.1.96-.15,3.94-.51,7.76-.44,11.57-.06,4.3.42,8.55,1.31,12.91,1.11,4.5-.21,8.98-.63,13.23-2.27,3.73-1.44,6.57-3.93,8.35-7.56.08-.16.16-.31.24-.45,1.77.26,3.22,1.94,3.43,3.86.22,2.06-.6,3.65-2.12,4.94Z"/>
    <path class="st0" d="M148.81,66.39s-.01.02-.01.03,0,.02.01.04c.01-.03.02-.06.03-.09-.01,0-.02.01-.03.02Z"/>
    <path class="st0" d="M165.24,72.93s-.02.06-.03.09c-.02.03-.04.05-.06.08-.01-.04-.02-.08-.02-.14v-.07h0s.05,0,.1.04Z"/>
    <path class="st0" d="M113.94,80.89s-.03.06-.05.08-.05.04-.07.05c-.01-.03-.01-.06-.01-.11v-.06h.01s.06,0,.12.04Z"/>
    <path class="st0" d="M76.35,83.82s-.03-.03-.03-.03c0,0,.05.02.03.03Z"/>
    <path class="st0" d="M140.6,65.01s-.07,0-.14-.05c.01-.03.03-.05.06-.07.02-.02.05-.03.08-.04.01.04.02.08,0,.16Z"/>
    <path class="st0" d="M113.13,92.48s.02.07,0,.14c-.04.02-.06,0-.11-.05.01-.02.03-.04.05-.06.02-.01.04-.02.06-.03Z"/>
    <path class="st0" d="M281.23,50.25c.49.03.96.22,1.44.34-.07-2.35-1.46-3.44-3.75-2.93-.39.09-.77.19-1.15.33-4.29,1.52-7.4,4.43-9.72,8.33-1.87,3.25-3.05,6.67-3.45,10.34-.14,1.32-.18,2.65.37,3.91.42.98,1.12,1.55,2.2,1.66,1.26.12,2.36-.28,3.41-.92,2.01-1.23,3.61-2.9,5.05-4.74,2.09-2.66,4.05-5.39,5.14-8.64.56-1.68.37-3.14-1-4.36-.62-.56-.83-1.26-.47-2.03.37-.81,1-1.33,1.93-1.29ZM278.06,57.03c-1.84,4.64-4.67,8.57-8.63,11.63-.5.38-1.13.58-1.7.87-.1-.04-.2-.08-.29-.12,0-.85-.09-1.71,0-2.54.42-3.66,1.66-7.03,3.67-10.11,1.17-1.81,2.69-3.27,4.44-4.52.19-.14.41-.25.74-.44-.03,1.55.43,2.81,1.5,3.79.16.46.26.84.34,1.23,0,.06-.04.14-.07.21Z"/>
    <path class="st0" d="M96.05,79.71l.04.02s-.01-.05-.04-.02Z"/>
    <path class="st0" d="M84.84,64.89c-.59-.58-1.43-.33-2.05-.02-1.4.68-2.84,1.37-4.09,2.3-4.22,3.13-7.06,7.35-9.2,12.08-.1.22-.17.44-.28.74.47.05.87.13,1.26.14,2.22.02,4.03-1.04,5.74-2.29,2.36-1.73,4.3-3.87,6.04-6.28.88-1.59,1.78-3.11,2.56-4.69.3-.6.6-1.41.02-1.98ZM75.54,74.77c-.08.04-.12.06-.16.07-.02,0-.06.02-.1.03v-.12c1.17-1.79,2.6-3.23,4.24-4.48-1.06,1.74-2.43,3.2-3.98,4.5Z"/>
    <path class="st0" d="M108.14,64.81c-.57-.33-1.4-.36-2.47-.08-2.91.76-5.29,2.47-7.38,4.63-1.42,1.48-2.6,3.12-3.57,4.89-.91,1.6-1.63,3.32-2.23,5.12-.65,1.96-1.16,3.96-1.07,6.07.02.45.08.84.19,1.19.43,1.41,1.58,2,3.27,1.62,1.3-.28,2.35-1.04,3.39-1.92,1.09-1.12,2.18-2.17,3.2-3.3,1.63-1.8,2.92-3.84,4-6.01.43-.85.82-1.72,1.19-2.6.88-2.1,1.61-4.3,2.16-6.53.39-1.57.12-2.62-.68-3.08ZM96.05,79.71s.04.02.04.02l-.04-.02ZM96.75,79.22c-.25.12-.35.15-.45.19-.01-.05-.02-.1-.03-.15,1.85-2.6,4.24-4.81,7.06-6.83-1.65,2.49-3.94,4.72-6.58,6.79Z"/>
    <path class="st0" d="M133.85,65.24c.02-.08.05-.17.11-.27.06,0,.08.01.13.06-.02.1-.07.17-.17.24-.05,0-.07-.02-.07-.02Z"/>
    <path class="st0" d="M148.78,66.43s.03-.05.05-.06c-.01.03-.02.06-.05.06Z"/>
    <path class="st0" d="M133.88,65.27c-.03.05-.06.09-.1.13,0-.04,0-.08.03-.14.04-.02.06,0,.07.01Z"/>
    <path class="st0" d="M75.42,74.79s-.02.03-.04.05c-.02,0-.06.02-.1.03,0-.04,0-.08.03-.14.05,0,.07.01.11.06Z"/>
    <path class="st0" d="M75.14,75.07s.01.02.01.02c0,0-.02-.01-.01-.02Z"/>
  </g>
</svg>