<svg version="1.1" id="Layer_1" xmlns="http://www.w3.org/2000/svg" xmlns:xlink="http://www.w3.org/1999/xlink" x="0px" y="0px"
	 width="100%" viewBox="0 0 2333 1140" enable-background="new 0 0 2333 1140" xml:space="preserve">
<path fill="#FFFFFF" fill-rule="evenodd" opacity="1.000000" stroke="none" 
	d="
M774.852173,661.879211 
	C774.698181,661.757141 774.544250,661.635132 774.516541,660.781311 
	C774.920166,659.688477 775.292297,658.582764 775.732056,657.504639 
	C787.762329,628.012451 804.666260,601.289368 822.879822,575.370667 
	C839.418213,551.835693 857.885193,529.540405 868.419739,502.276154 
	C869.050049,500.644836 869.821411,499.068024 870.877563,496.670227 
	C866.860840,497.368835 863.775574,497.880035 860.700073,498.444336 
	C836.337341,502.914368 812.205322,509.786255 787.127136,507.798706 
	C777.340332,507.023071 771.479309,510.453918 768.017456,519.153564 
	C767.919739,519.399170 767.544861,519.534546 768.042664,519.156067 
	C761.785828,516.606323 756.179932,513.448792 750.164673,512.042786 
	C735.230225,508.552063 720.707825,511.667908 706.560669,516.634644 
	C679.414795,526.164856 655.963318,541.731445 634.802490,560.980713 
	C632.689026,562.903259 630.494812,564.737000 627.840454,567.044617 
	C627.497070,565.309204 627.282532,564.522766 627.191711,563.722290 
	C624.688660,541.656250 611.904602,528.614746 590.168396,525.831421 
	C571.502319,523.441223 554.038513,527.996582 537.304016,535.527344 
	C486.782776,558.262817 449.613159,595.169067 423.874023,643.873230 
	C410.658691,668.879517 403.890106,695.259338 407.998322,723.787537 
	C411.494415,748.065125 427.691132,766.579346 450.233734,771.448181 
	C465.213074,774.683533 479.709839,772.639160 493.688080,766.570984 
	C511.885315,758.671265 527.895935,747.310120 543.198486,734.904114 
	C551.302979,728.333679 559.103821,721.388855 567.452881,714.262146 
	C568.117798,716.432495 568.607788,718.126099 569.154297,719.801331 
	C576.970215,743.758362 596.159485,757.719238 621.242126,758.105164 
	C642.328491,758.429565 660.648499,750.973877 677.307190,738.753479 
	C683.189392,734.438538 688.701599,729.619263 694.527222,724.913513 
	C695.056335,725.764587 695.515869,726.436218 695.908508,727.144958 
	C704.192078,742.097473 716.924133,749.267822 733.966492,749.186401 
	C746.435730,749.126892 757.877136,745.507019 769.152954,740.140747 
	C769.285645,740.255249 769.418274,740.369751 769.411011,741.299866 
	C769.253296,742.389771 769.095581,743.479675 768.880615,744.964722 
	C798.655151,742.194153 828.052917,739.458557 857.698914,736.699951 
	C856.849670,727.039673 854.993408,717.945129 859.005310,709.150635 
	C860.519226,705.832153 861.621704,702.328613 863.020203,698.954407 
	C879.031555,660.324280 896.362000,622.378174 921.244385,588.430908 
	C930.103699,576.344116 939.190491,564.420166 952.127197,556.087524 
	C952.304199,556.223022 952.481140,556.358459 952.466736,557.184265 
	C940.741211,581.640015 928.566406,605.893677 917.441711,630.619751 
	C909.478027,648.320068 904.446228,667.015686 905.057983,686.731384 
	C906.026917,717.954773 929.269958,736.012390 959.247009,727.873291 
	C971.664368,724.501831 983.363892,718.480225 995.372498,713.620728 
	C996.365845,713.218872 997.225586,712.486877 998.404724,711.746765 
	C995.026306,708.199402 992.341003,704.377747 988.758850,701.804382 
	C977.486145,693.706177 977.784363,683.619019 982.777588,672.399963 
	C983.115112,671.641541 983.348083,670.837402 983.658508,670.066040 
	C993.940247,644.519958 1006.747498,620.261841 1021.178101,596.847351 
	C1031.447754,580.184448 1043.267944,564.741882 1057.798706,551.510071 
	C1059.654541,549.820129 1061.643921,548.276917 1063.571533,546.665771 
	C1063.910767,546.945801 1064.250122,547.225830 1064.589478,547.505859 
	C1061.239868,554.115845 1057.959839,560.762268 1054.528198,567.329346 
	C1042.343018,590.647583 1030.228638,614.015076 1022.580078,639.319092 
	C1018.076294,654.219543 1015.044861,669.381226 1018.022339,685.083008 
	C1022.026672,706.200256 1036.258179,718.913635 1056.229126,719.209900 
	C1074.649292,719.483154 1090.294678,712.317993 1104.177124,700.889832 
	C1121.164307,686.905945 1135.561279,670.374573 1147.359619,651.968933 
	C1173.948608,610.489624 1199.735962,568.496399 1225.827759,526.698730 
	C1226.188232,526.121216 1226.268188,525.368469 1226.571411,524.404053 
	C1209.510986,525.975403 1192.961060,527.841370 1176.359375,528.874146 
	C1168.880371,529.339417 1163.261719,531.063782 1160.949585,538.918213 
	C1160.352295,540.947021 1159.036987,542.796936 1157.886963,544.625610 
	C1144.342773,566.163025 1130.767212,587.680786 1116.835083,608.847168 
	C1116.705688,608.736755 1116.576294,608.626282 1116.637573,607.829529 
	C1122.551880,594.437073 1128.768799,581.168213 1134.300903,567.619690 
	C1140.695190,551.960083 1145.174561,535.817688 1144.144043,518.582642 
	C1143.021240,499.801849 1130.250488,484.618866 1111.847900,480.998016 
	C1089.420654,476.585205 1068.833252,481.857788 1049.908936,494.008362 
	C1041.991455,499.091827 1034.620239,505.026276 1026.683350,510.804810 
	C1019.814697,498.072113 1008.334961,491.281952 994.110413,490.520569 
	C984.106262,489.985046 973.854492,491.165588 963.938965,492.882904 
	C957.034363,494.078735 950.512512,497.483887 943.515930,500.011871 
	C942.541443,498.123962 941.502747,496.111694 940.240784,493.666870 
	C921.794556,498.169525 903.016846,498.481323 884.183594,498.328827 
	C882.641785,498.316345 880.507996,499.860199 879.622070,501.285583 
	C868.726013,518.817932 857.045227,535.956726 847.484680,554.202026 
	C834.387390,579.196960 819.506531,603.000366 803.398804,626.052063 
	C794.653870,638.567078 784.694153,650.233154 774.852173,661.879211 
M1329.946289,563.399719 
	C1323.734253,579.457520 1318.827515,595.879395 1317.573242,613.129150 
	C1315.268677,644.817932 1327.061523,668.909973 1355.971069,680.739136 
	C1366.912476,685.216125 1378.501099,686.767273 1390.210083,686.793701 
	C1421.525879,686.864380 1451.805176,681.152161 1480.870117,669.433716 
	C1531.517456,649.013611 1572.409668,615.575989 1607.369751,574.275818 
	C1608.705566,572.697937 1610.069458,571.143738 1611.420288,569.578491 
	C1611.792358,572.533203 1611.207520,574.910828 1610.545532,577.266846 
	C1605.865479,593.925903 1603.140137,610.772461 1606.005127,628.087708 
	C1610.220947,653.565552 1630.731201,668.077209 1656.215820,664.389038 
	C1675.623291,661.580383 1691.133911,651.947876 1704.640503,638.481934 
	C1711.821655,631.322449 1718.619751,623.778503 1725.655518,616.339661 
	C1726.059082,617.036438 1726.500366,617.734314 1726.880615,618.463928 
	C1738.308838,640.397034 1756.493896,651.108459 1781.114624,650.917297 
	C1799.727051,650.772827 1816.264771,644.267944 1831.458252,633.925171 
	C1859.210205,615.033325 1880.501953,590.073792 1898.699585,562.216736 
	C1899.589233,560.854797 1900.521118,559.520569 1901.536011,558.021973 
	C1902.061646,567.507996 1902.057495,576.362610 1903.128418,585.085327 
	C1906.362793,611.432007 1925.322510,631.173157 1949.872925,633.828857 
	C1971.777100,636.198303 1991.453003,630.426331 2008.637939,616.525024 
	C2011.834595,613.939270 2014.912231,611.206360 2018.255249,608.362305 
	C2024.654541,618.251648 2033.221924,624.474548 2044.571411,626.171448 
	C2063.121582,628.944885 2080.006104,624.363037 2094.875244,613.182983 
	C2099.443604,609.747986 2103.876465,608.320862 2109.108398,609.783447 
	C2115.266846,611.505127 2122.141113,612.470947 2127.187012,615.959900 
	C2135.444580,621.670044 2136.841553,636.479187 2130.308594,645.975891 
	C2124.791260,653.996338 2118.567139,661.801575 2111.441650,668.388977 
	C2095.936768,682.722900 2077.717773,693.140259 2058.824463,702.483459 
	C2023.060303,720.169861 1985.325073,731.865784 1946.457520,740.225342 
	C1899.138306,750.402771 1851.002441,754.078186 1802.900757,757.835083 
	C1774.865723,760.024719 1746.780273,761.608521 1718.702515,763.198364 
	C1696.940674,764.430603 1675.154419,765.227356 1653.380981,766.258057 
	C1628.619141,767.430115 1603.866211,768.814636 1579.097168,769.797058 
	C1554.818237,770.760071 1530.524292,771.352295 1506.235962,772.072388 
	C1484.609863,772.713562 1462.984009,773.365173 1441.355347,773.907410 
	C1410.564575,774.679443 1379.774048,775.809570 1348.978760,775.988098 
	C1255.666870,776.529175 1162.352783,776.642822 1069.039795,777.024353 
	C1047.223267,777.113525 1025.407959,777.576172 1003.593018,777.920532 
	C991.604919,778.109863 979.612366,778.244934 967.632629,778.692322 
	C930.552246,780.077271 893.474854,781.547302 856.400574,783.087585 
	C830.128052,784.179138 803.845276,785.147217 777.598328,786.698792 
	C747.540344,788.475525 717.498657,790.607544 687.483093,793.001953 
	C650.167603,795.978882 612.778625,798.465149 575.615540,802.820007 
	C521.919556,809.112244 468.255096,815.974121 414.839569,824.280090 
	C353.752045,833.779053 293.400360,847.027893 234.750015,867.062988 
	C202.997696,877.909668 172.182892,890.852356 144.138580,909.587158 
	C127.960648,920.394653 113.517311,933.131531 102.452095,949.333069 
	C95.238319,959.895386 98.104149,973.583679 108.789444,979.044556 
	C115.755112,982.604492 122.921089,985.777222 130.034241,989.043091 
	C164.674591,1004.947327 199.339005,1020.799255 233.971756,1036.719971 
	C257.568207,1047.567383 281.082703,1058.593872 304.721954,1069.346436 
	C315.347321,1074.179565 326.787506,1070.313721 331.752502,1059.829346 
	C340.707550,1040.919434 354.978302,1026.660034 370.929932,1013.870544 
	C395.024902,994.552063 422.061584,980.279785 450.496674,968.533203 
	C490.204346,952.129761 531.405396,940.640625 573.586548,933.040710 
	C608.458252,926.757812 643.538940,921.505554 678.655579,916.744751 
	C719.202454,911.247803 759.851746,906.438293 800.528809,901.990479 
	C834.262268,898.301941 868.080933,895.342102 901.897156,892.475769 
	C941.686890,889.102966 981.502258,886.009338 1021.330078,883.118713 
	C1049.204468,881.095703 1077.115601,879.570984 1105.015381,877.907654 
	C1129.096069,876.471924 1153.178955,875.057800 1177.270142,873.812866 
	C1199.872070,872.644897 1222.485229,871.688416 1245.095215,870.680359 
	C1268.534058,869.635315 1291.971558,868.544067 1315.416382,867.653076 
	C1335.203857,866.901062 1355.003052,866.461731 1374.793823,865.786011 
	C1407.230713,864.678528 1439.663818,863.460510 1472.100708,862.347900 
	C1496.718750,861.503540 1521.353149,861.034912 1545.956543,859.889221 
	C1581.516602,858.233459 1617.083740,856.531250 1652.594482,854.076233 
	C1686.119385,851.758484 1719.614746,848.834778 1753.052246,845.472290 
	C1802.095947,840.540466 1850.831909,833.277344 1899.221680,823.879211 
	C1958.976440,812.273865 2017.844727,797.456360 2073.958496,773.283325 
	C2107.307861,758.916870 2139.127441,741.832214 2165.885742,716.816162 
	C2198.118164,686.682434 2219.519775,650.878052 2221.566162,605.558350 
	C2222.711914,580.181946 2215.019287,557.788391 2196.981689,539.775391 
	C2189.820801,532.624084 2180.888672,527.246338 2172.757812,521.057312 
	C2190.582275,492.144989 2208.921875,462.397186 2227.778076,431.811462 
	C2224.177734,432.026001 2222.017090,432.090118 2219.869629,432.293152 
	C2203.620605,433.828857 2187.361328,435.275055 2171.142090,437.082489 
	C2168.920654,437.330109 2166.197266,438.922607 2164.917969,440.743683 
	C2159.944824,447.822906 2155.608398,455.345032 2150.768066,462.522400 
	C2133.831299,487.637482 2118.551758,513.922546 2098.488525,536.838013 
	C2097.528320,537.934692 2096.512207,538.982666 2094.828369,540.803711 
	C2094.988037,539.010010 2094.925049,538.492126 2095.090088,538.061584 
	C2096.161621,535.265442 2097.185303,532.444946 2098.402588,529.711426 
	C2113.052002,496.809967 2132.462891,466.719421 2154.152100,438.182983 
	C2167.664551,420.404297 2179.308105,401.821564 2187.453369,381.049438 
	C2188.206543,379.129028 2189.123291,377.272888 2190.219971,374.813446 
	C2188.105713,375.025208 2186.786865,375.049866 2185.512451,375.300690 
	C2156.603760,380.990753 2127.820068,387.632141 2097.996826,386.027039 
	C2096.503906,385.946686 2094.286865,387.452393 2093.446777,388.846344 
	C2069.550781,428.489624 2046.258667,468.459198 2025.824097,510.054047 
	C2016.924805,528.168518 2005.895752,545.081909 1992.161987,560.032166 
	C1989.336670,563.107788 1985.973633,565.689514 1982.858398,568.498901 
	C1982.479248,568.213562 1982.100098,567.928162 1981.720947,567.642822 
	C1982.030884,565.372620 1982.154785,563.058472 1982.679688,560.839111 
	C1987.515503,540.385803 1996.279663,521.425842 2006.758423,503.473846 
	C2028.407837,466.384308 2050.982178,429.834656 2073.172607,393.060883 
	C2073.965820,391.746613 2074.723145,390.410706 2075.830322,388.513794 
	C2046.474365,391.213196 2017.979858,394.099152 1989.431152,396.270813 
	C1982.333740,396.810730 1978.171631,400.063843 1974.803711,405.527924 
	C1974.104614,406.662048 1973.389404,407.787018 1972.721680,408.939453 
	C1960.703369,429.683624 1948.695312,450.433746 1936.666626,471.171936 
	C1935.983276,472.350128 1935.141602,473.436462 1934.013428,475.094940 
	C1934.013428,467.450836 1934.275391,460.615662 1933.967896,453.806213 
	C1932.665527,424.974426 1912.041382,405.220398 1883.304321,404.783325 
	C1869.020874,404.566101 1855.505615,407.820007 1842.582642,413.447479 
	C1798.415527,432.680695 1765.494019,464.297638 1741.085938,505.488953 
	C1731.171509,522.220520 1720.470215,538.510681 1709.554688,554.613831 
	C1703.940186,562.896362 1697.068604,570.326721 1690.765137,578.142212 
	C1690.311401,577.867676 1689.857666,577.593140 1689.403809,577.318604 
	C1692.095459,571.133362 1694.571533,564.843506 1697.514160,558.780090 
	C1714.842041,523.072815 1738.476929,491.455627 1761.416504,459.315125 
	C1772.067749,444.391968 1780.423706,427.830597 1790.261353,411.268951 
	C1786.962158,411.046631 1785.266846,410.932373 1783.448730,410.809845 
	C1786.204712,390.441986 1780.409302,373.970428 1762.170532,363.847046 
	C1746.504761,355.151794 1730.391357,355.895142 1716.095093,366.738159 
	C1696.540527,381.569550 1694.259644,401.104614 1703.816162,422.976593 
	C1702.208618,422.976593 1701.007324,423.168549 1699.890137,422.943390 
	C1695.051392,421.968109 1692.445923,424.228363 1690.046265,428.307068 
	C1684.476807,437.773926 1678.365112,446.922211 1672.448486,456.183716 
	C1671.813965,457.176788 1671.015869,458.065369 1670.293701,459.002441 
	C1670.501953,454.274994 1671.526123,449.941193 1672.450317,445.586182 
	C1679.842896,410.757629 1681.575684,375.883362 1671.893799,341.220123 
	C1660.461670,300.290802 1635.846436,271.037140 1595.349121,255.898087 
	C1563.722534,244.075165 1531.166260,239.906784 1497.666016,242.863144 
	C1437.444214,248.177628 1384.024658,269.952209 1338.497070,309.992035 
	C1316.759155,329.109711 1298.354614,350.911926 1288.519287,378.780334 
	C1280.850342,400.511047 1278.792236,422.517853 1288.286621,444.100281 
	C1300.375122,471.579437 1323.136353,485.059845 1351.795166,489.971802 
	C1356.259277,490.736908 1360.760620,491.285126 1364.318481,491.799683 
	C1352.824829,515.668274 1341.507935,539.169739 1329.946289,563.399719 
M134.278351,794.221375 
	C170.855103,817.873779 210.077087,824.900818 252.068863,812.119873 
	C284.237976,802.328613 308.957458,781.528748 330.797760,756.848450 
	C355.119965,729.363525 374.409088,698.385498 392.080933,666.448792 
	C434.351501,590.057129 478.772614,515.009399 528.427429,443.134003 
	C530.821716,439.668274 533.195190,438.552429 537.363953,438.697083 
	C565.014282,439.656372 592.645630,440.152771 620.058411,435.000122 
	C648.004028,429.747253 673.854370,419.884674 696.018799,401.621918 
	C711.361084,388.980408 719.537537,373.139191 718.076294,352.737579 
	C716.668579,333.082764 702.589722,314.664368 684.083618,309.503204 
	C678.970398,308.077179 673.683655,307.173645 668.417908,306.467041 
	C667.159546,306.298157 665.089783,307.536865 664.388062,308.718842 
	C662.186035,312.427521 660.385620,316.384003 658.559143,320.304779 
	C648.430481,342.047333 631.695862,356.729614 609.222961,364.199158 
	C568.844055,377.620392 527.257690,380.119904 485.322601,374.498657 
	C452.574097,370.108887 419.877594,366.131195 386.776917,368.088715 
	C362.222137,369.540863 337.957703,373.196167 315.345245,383.284515 
	C286.170807,396.300446 262.181213,415.382507 250.492065,446.339264 
	C238.789001,477.332977 239.433258,508.116333 257.842834,536.404175 
	C276.243744,564.678711 304.151672,574.441589 336.892761,572.528198 
	C342.474518,572.202026 348.063354,571.996338 354.260315,571.706421 
	C353.655212,573.154297 353.429504,573.922791 353.039062,574.595825 
	C334.161194,607.139343 315.623932,639.887756 296.256500,672.137573 
	C282.860077,694.444702 267.776947,715.651978 248.421753,733.390869 
	C239.391525,741.667053 229.566696,748.767822 217.648376,752.388428 
	C203.569366,756.665405 192.857162,752.586243 185.128922,740.100281 
	C173.969299,722.070496 177.251328,696.015259 192.543015,678.373840 
	C200.760651,668.893494 210.898300,664.397644 223.327377,664.610657 
	C231.467606,664.750122 234.281540,666.553467 235.934052,674.436646 
	C237.123077,680.108826 237.407944,685.976135 238.001526,691.766052 
	C238.821167,699.760925 239.551788,707.764893 240.471817,717.339417 
	C253.661255,707.204651 266.380554,698.586914 277.697601,688.409729 
	C288.996185,678.249146 294.594269,664.584839 294.973450,649.224792 
	C295.643829,622.069702 281.989960,603.028137 259.713257,589.576660 
	C238.951187,577.039673 216.212982,573.898071 192.310532,576.959534 
	C159.206360,581.199585 132.730682,596.095459 114.414726,624.420410 
	C95.433014,653.775024 88.853577,686.025696 93.444244,720.408203 
	C97.379250,749.880066 109.843781,775.064331 134.278351,794.221375 
z"/>
<path fill="#FF6A00" opacity="1.000000" stroke="none" 
	d="
M1330.068604,563.035522 
	C1341.507935,539.169739 1352.824829,515.668274 1364.318481,491.799683 
	C1360.760620,491.285126 1356.259277,490.736908 1351.795166,489.971802 
	C1323.136353,485.059845 1300.375122,471.579437 1288.286621,444.100281 
	C1278.792236,422.517853 1280.850342,400.511047 1288.519287,378.780334 
	C1298.354614,350.911926 1316.759155,329.109711 1338.497070,309.992035 
	C1384.024658,269.952209 1437.444214,248.177628 1497.666016,242.863144 
	C1531.166260,239.906784 1563.722534,244.075165 1595.349121,255.898087 
	C1635.846436,271.037140 1660.461670,300.290802 1671.893799,341.220123 
	C1681.575684,375.883362 1679.842896,410.757629 1672.450317,445.586182 
	C1671.526123,449.941193 1670.501953,454.274994 1670.293701,459.002441 
	C1671.015869,458.065369 1671.813965,457.176788 1672.448486,456.183716 
	C1678.365112,446.922211 1684.476807,437.773926 1690.046265,428.307068 
	C1692.445923,424.228363 1695.051392,421.968109 1699.890137,422.943390 
	C1701.007324,423.168549 1702.208618,422.976593 1703.816162,422.976593 
	C1694.259644,401.104614 1696.540527,381.569550 1716.095093,366.738159 
	C1730.391357,355.895142 1746.504761,355.151794 1762.170532,363.847046 
	C1780.409302,373.970428 1786.204712,390.441986 1783.448730,410.809845 
	C1785.266846,410.932373 1786.962158,411.046631 1790.261353,411.268951 
	C1780.423706,427.830597 1772.067749,444.391968 1761.416504,459.315125 
	C1738.476929,491.455627 1714.842041,523.072815 1697.514160,558.780090 
	C1694.571533,564.843506 1692.095459,571.133362 1689.403809,577.318604 
	C1689.857666,577.593140 1690.311401,577.867676 1690.765137,578.142212 
	C1697.068604,570.326721 1703.940186,562.896362 1709.554688,554.613831 
	C1720.470215,538.510681 1731.171509,522.220520 1741.085938,505.488953 
	C1765.494019,464.297638 1798.415527,432.680695 1842.582642,413.447479 
	C1855.505615,407.820007 1869.020874,404.566101 1883.304321,404.783325 
	C1912.041382,405.220398 1932.665527,424.974426 1933.967896,453.806213 
	C1934.275391,460.615662 1934.013428,467.450836 1934.013428,475.094940 
	C1935.141602,473.436462 1935.983276,472.350128 1936.666626,471.171936 
	C1948.695312,450.433746 1960.703369,429.683624 1972.721680,408.939453 
	C1973.389404,407.787018 1974.104614,406.662048 1974.803711,405.527924 
	C1978.171631,400.063843 1982.333740,396.810730 1989.431152,396.270813 
	C2017.979858,394.099152 2046.474365,391.213196 2075.830322,388.513794 
	C2074.723145,390.410706 2073.965820,391.746613 2073.172607,393.060883 
	C2050.982178,429.834656 2028.407837,466.384308 2006.758423,503.473846 
	C1996.279663,521.425842 1987.515503,540.385803 1982.679688,560.839111 
	C1982.154785,563.058472 1982.030884,565.372620 1981.720947,567.642822 
	C1982.100098,567.928162 1982.479248,568.213562 1982.858398,568.498901 
	C1985.973633,565.689514 1989.336670,563.107788 1992.161987,560.032166 
	C2005.895752,545.081909 2016.924805,528.168518 2025.824097,510.054047 
	C2046.258667,468.459198 2069.550781,428.489624 2093.446777,388.846344 
	C2094.286865,387.452393 2096.503906,385.946686 2097.996826,386.027039 
	C2127.820068,387.632141 2156.603760,380.990753 2185.512451,375.300690 
	C2186.786865,375.049866 2188.105713,375.025208 2190.219971,374.813446 
	C2189.123291,377.272888 2188.206543,379.129028 2187.453369,381.049438 
	C2179.308105,401.821564 2167.664551,420.404297 2154.152100,438.182983 
	C2132.462891,466.719421 2113.052002,496.809967 2098.402588,529.711426 
	C2097.185303,532.444946 2096.161621,535.265442 2095.090088,538.061584 
	C2094.925049,538.492126 2094.988037,539.010010 2094.828369,540.803711 
	C2096.512207,538.982666 2097.528320,537.934692 2098.488525,536.838013 
	C2118.551758,513.922546 2133.831299,487.637482 2150.768066,462.522400 
	C2155.608398,455.345032 2159.944824,447.822906 2164.917969,440.743683 
	C2166.197266,438.922607 2168.920654,437.330109 2171.142090,437.082489 
	C2187.361328,435.275055 2203.620605,433.828857 2219.869629,432.293152 
	C2222.017090,432.090118 2224.177734,432.026001 2227.778076,431.811462 
	C2208.921875,462.397186 2190.582275,492.144989 2172.757812,521.057312 
	C2180.888672,527.246338 2189.820801,532.624084 2196.981689,539.775391 
	C2215.019287,557.788391 2222.711914,580.181946 2221.566162,605.558350 
	C2219.519775,650.878052 2198.118164,686.682434 2165.885742,716.816162 
	C2139.127441,741.832214 2107.307861,758.916870 2073.958496,773.283325 
	C2017.844727,797.456360 1958.976440,812.273865 1899.221680,823.879211 
	C1850.831909,833.277344 1802.095947,840.540466 1753.052246,845.472290 
	C1719.614746,848.834778 1686.119385,851.758484 1652.594482,854.076233 
	C1617.083740,856.531250 1581.516602,858.233459 1545.956543,859.889221 
	C1521.353149,861.034912 1496.718750,861.503540 1472.100708,862.347900 
	C1439.663818,863.460510 1407.230713,864.678528 1374.793823,865.786011 
	C1355.003052,866.461731 1335.203857,866.901062 1315.416382,867.653076 
	C1291.971558,868.544067 1268.534058,869.635315 1245.095215,870.680359 
	C1222.485229,871.688416 1199.872070,872.644897 1177.270142,873.812866 
	C1153.178955,875.057800 1129.096069,876.471924 1105.015381,877.907654 
	C1077.115601,879.570984 1049.204468,881.095703 1021.330078,883.118713 
	C981.502258,886.009338 941.686890,889.102966 901.897156,892.475769 
	C868.080933,895.342102 834.262268,898.301941 800.528809,901.990479 
	C759.851746,906.438293 719.202454,911.247803 678.655579,916.744751 
	C643.538940,921.505554 608.458252,926.757812 573.586548,933.040710 
	C531.405396,940.640625 490.204346,952.129761 450.496674,968.533203 
	C422.061584,980.279785 395.024902,994.552063 370.929932,1013.870544 
	C354.978302,1026.660034 340.707550,1040.919434 331.752502,1059.829346 
	C326.787506,1070.313721 315.347321,1074.179565 304.721954,1069.346436 
	C281.082703,1058.593872 257.568207,1047.567383 233.971756,1036.719971 
	C199.339005,1020.799255 164.674591,1004.947327 130.034241,989.043091 
	C122.921089,985.777222 115.755112,982.604492 108.789444,979.044556 
	C98.104149,973.583679 95.238319,959.895386 102.452095,949.333069 
	C113.517311,933.131531 127.960648,920.394653 144.138580,909.587158 
	C172.182892,890.852356 202.997696,877.909668 234.750015,867.062988 
	C293.400360,847.027893 353.752045,833.779053 414.839569,824.280090 
	C468.255096,815.974121 521.919556,809.112244 575.615540,802.820007 
	C612.778625,798.465149 650.167603,795.978882 687.483093,793.001953 
	C717.498657,790.607544 747.540344,788.475525 777.598328,786.698792 
	C803.845276,785.147217 830.128052,784.179138 856.400574,783.087585 
	C893.474854,781.547302 930.552246,780.077271 967.632629,778.692322 
	C979.612366,778.244934 991.604919,778.109863 1003.593018,777.920532 
	C1025.407959,777.576172 1047.223267,777.113525 1069.039795,777.024353 
	C1162.352783,776.642822 1255.666870,776.529175 1348.978760,775.988098 
	C1379.774048,775.809570 1410.564575,774.679443 1441.355347,773.907410 
	C1462.984009,773.365173 1484.609863,772.713562 1506.235962,772.072388 
	C1530.524292,771.352295 1554.818237,770.760071 1579.097168,769.797058 
	C1603.866211,768.814636 1628.619141,767.430115 1653.380981,766.258057 
	C1675.154419,765.227356 1696.940674,764.430603 1718.702515,763.198364 
	C1746.780273,761.608521 1774.865723,760.024719 1802.900757,757.835083 
	C1851.002441,754.078186 1899.138306,750.402771 1946.457520,740.225342 
	C1985.325073,731.865784 2023.060303,720.169861 2058.824463,702.483459 
	C2077.717773,693.140259 2095.936768,682.722900 2111.441650,668.388977 
	C2118.567139,661.801575 2124.791260,653.996338 2130.308594,645.975891 
	C2136.841553,636.479187 2135.444580,621.670044 2127.187012,615.959900 
	C2122.141113,612.470947 2115.266846,611.505127 2109.108398,609.783447 
	C2103.876465,608.320862 2099.443604,609.747986 2094.875244,613.182983 
	C2080.006104,624.363037 2063.121582,628.944885 2044.571411,626.171448 
	C2033.221924,624.474548 2024.654541,618.251648 2018.255249,608.362305 
	C2014.912231,611.206360 2011.834595,613.939270 2008.637939,616.525024 
	C1991.453003,630.426331 1971.777100,636.198303 1949.872925,633.828857 
	C1925.322510,631.173157 1906.362793,611.432007 1903.128418,585.085327 
	C1902.057495,576.362610 1902.061646,567.507996 1901.536011,558.021973 
	C1900.521118,559.520569 1899.589233,560.854797 1898.699585,562.216736 
	C1880.501953,590.073792 1859.210205,615.033325 1831.458252,633.925171 
	C1816.264771,644.267944 1799.727051,650.772827 1781.114624,650.917297 
	C1756.493896,651.108459 1738.308838,640.397034 1726.880615,618.463928 
	C1726.500366,617.734314 1726.059082,617.036438 1725.655518,616.339661 
	C1718.619751,623.778503 1711.821655,631.322449 1704.640503,638.481934 
	C1691.133911,651.947876 1675.623291,661.580383 1656.215820,664.389038 
	C1630.731201,668.077209 1610.220947,653.565552 1606.005127,628.087708 
	C1603.140137,610.772461 1605.865479,593.925903 1610.545532,577.266846 
	C1611.207520,574.910828 1611.792358,572.533203 1611.420288,569.578491 
	C1610.069458,571.143738 1608.705566,572.697937 1607.369751,574.275818 
	C1572.409668,615.575989 1531.517456,649.013611 1480.870117,669.433716 
	C1451.805176,681.152161 1421.525879,686.864380 1390.210083,686.793701 
	C1378.501099,686.767273 1366.912476,685.216125 1355.971069,680.739136 
	C1327.061523,668.909973 1315.268677,644.817932 1317.573242,613.129150 
	C1318.827515,595.879395 1323.734253,579.457520 1330.068604,563.035522 
M1772.041870,823.708679 
	C1805.479980,818.823608 1839.006958,814.473267 1872.335205,808.928101 
	C1922.150391,800.639893 1971.272461,789.254028 2019.240601,773.227478 
	C2056.484863,760.783875 2092.548828,745.812439 2125.393799,723.920105 
	C2149.827148,707.634583 2170.903320,688.115173 2185.151367,661.965393 
	C2196.680176,640.806580 2204.605957,618.663147 2201.849609,594.168213 
	C2199.116455,569.878967 2187.559326,551.177002 2164.856689,540.337219 
	C2161.643311,538.802856 2159.845703,539.297546 2157.525391,542.357849 
	C2145.556885,558.142151 2133.219971,573.646912 2121.030762,589.264526 
	C2120.580078,589.841980 2120.331055,590.576782 2119.868896,591.468140 
	C2121.230225,591.823425 2122.185547,592.050232 2123.127441,592.321960 
	C2141.571777,597.642639 2151.323730,609.371826 2153.275879,628.368835 
	C2154.515869,640.433289 2150.721680,651.032776 2144.125488,660.846680 
	C2133.330322,676.907288 2118.812256,689.075989 2102.853516,699.589172 
	C2052.736084,732.605591 1996.707153,750.264709 1938.475708,761.671753 
	C1896.596802,769.875488 1854.091309,773.612671 1811.575806,776.599854 
	C1767.042480,779.728882 1722.470459,782.439941 1677.879028,784.575745 
	C1626.640747,787.029907 1575.374756,789.080505 1524.098755,790.529907 
	C1457.307129,792.417847 1390.500122,794.117126 1323.688232,794.838928 
	C1252.034790,795.613037 1180.355835,794.359314 1108.710449,795.454224 
	C1029.103149,796.670715 949.517517,799.422058 869.929810,801.754028 
	C842.454590,802.559021 814.967651,803.605164 787.545288,805.431335 
	C736.208069,808.850220 684.864685,812.359070 633.617004,816.884949 
	C588.178406,820.897827 542.720276,825.273499 497.538910,831.450439 
	C451.385559,837.760193 405.362793,845.452942 359.638306,854.363953 
	C302.372986,865.524109 245.940109,880.097290 192.666489,904.779663 
	C169.092621,915.701782 146.851181,928.661316 128.713684,947.655884 
	C124.665253,951.895630 121.202164,956.694214 117.153893,961.619629 
	C183.173294,992.005432 248.186691,1021.928223 313.323486,1051.907837 
	C314.097992,1050.753052 314.614227,1049.927002 315.185120,1049.140625 
	C322.886017,1038.533569 329.592285,1026.992310 338.487671,1017.503845 
	C365.995087,988.162354 400.475677,968.911072 436.936462,953.136230 
	C482.401550,933.465759 530.008667,920.713257 578.684814,912.239197 
	C612.786377,906.302490 647.122192,901.658203 681.419434,896.914368 
	C711.748657,892.719360 742.113403,888.647217 772.562378,885.481873 
	C820.757019,880.471680 869.010254,875.977234 917.285400,871.804626 
	C958.091248,868.277710 998.945435,865.252991 1039.811401,862.496521 
	C1075.871216,860.064270 1111.964722,858.068054 1148.064453,856.309143 
	C1212.276489,853.180542 1276.499023,850.250916 1340.727905,847.491699 
	C1371.523682,846.168823 1402.347900,845.523987 1433.152954,844.398865 
	C1491.759521,842.258301 1550.374023,840.273254 1608.960327,837.661377 
	C1638.057983,836.364197 1667.130981,834.185791 1696.158081,831.731323 
	C1721.202759,829.613708 1746.166626,826.540833 1772.041870,823.708679 
M1523.758545,575.263916 
	C1518.331177,580.190063 1513.066284,585.310486 1507.449707,590.010681 
	C1472.662598,619.121643 1433.611694,638.528564 1387.719604,642.204102 
	C1376.883179,643.071899 1371.656982,638.969971 1372.986328,628.294067 
	C1374.286133,617.854980 1376.699951,607.281982 1380.461182,597.471924 
	C1392.896973,565.037109 1410.292969,535.050171 1428.143677,505.379913 
	C1465.937866,442.561157 1507.135986,381.984802 1549.526733,322.204926 
	C1550.825439,320.373566 1552.073975,318.506653 1553.587646,316.304565 
	C1552.304443,316.172516 1551.791016,315.996124 1551.333252,316.090454 
	C1536.106445,319.228851 1520.744263,320.729370 1505.178467,320.469788 
	C1503.364502,320.439545 1500.865601,322.068542 1499.778564,323.670776 
	C1477.529175,356.466431 1455.352783,389.312592 1433.340088,422.267731 
	C1408.557251,459.369843 1383.577637,496.376007 1363.165039,536.155212 
	C1350.444214,560.944763 1338.904663,586.305115 1336.531128,614.573120 
	C1334.623535,637.288879 1341.892212,653.007385 1359.379517,661.468567 
	C1369.067627,666.156067 1379.392334,667.733582 1389.916138,667.832275 
	C1415.445190,668.071655 1440.317505,663.837830 1464.389282,655.376160 
	C1507.733643,640.139832 1543.936279,614.048584 1575.585571,581.260315 
	C1612.406250,543.114380 1640.363159,499.827972 1652.583496,447.477753 
	C1660.332764,414.281677 1662.805176,380.975647 1653.958374,347.645111 
	C1645.963013,317.522278 1629.886719,293.164673 1601.061157,279.166351 
	C1568.949707,263.572357 1534.801270,258.840302 1499.450317,261.778534 
	C1448.690674,265.997406 1402.942749,283.494934 1362.614380,314.564819 
	C1342.285156,330.226868 1324.379639,348.361481 1312.392822,371.449677 
	C1303.542480,388.496368 1298.567993,406.482239 1302.408813,425.874390 
	C1308.807617,458.181061 1340.684692,474.450989 1376.521484,472.417328 
	C1375.158691,470.568115 1373.886353,468.867157 1372.640503,467.146973 
	C1361.318970,451.517365 1353.214844,434.639038 1351.957520,414.988281 
	C1350.086792,385.754608 1360.372803,360.645966 1380.058716,339.996124 
	C1423.801270,294.111816 1478.324341,278.290314 1539.853394,288.672577 
	C1574.560669,294.528961 1599.460327,315.281952 1610.826660,349.581268 
	C1619.604004,376.068329 1617.423706,402.923950 1610.178711,429.339233 
	C1594.760376,485.554108 1564.772339,533.300415 1523.758545,575.263916 
M1435.898804,529.436768 
	C1431.313965,537.551453 1426.259766,545.440979 1422.238037,553.825806 
	C1412.752563,573.602112 1403.707397,593.590942 1394.629517,613.559998 
	C1393.459351,616.133789 1393.151001,619.099426 1392.272217,622.557068 
	C1395.768555,622.133057 1398.219360,621.906372 1400.647095,621.530762 
	C1429.391724,617.083557 1455.137939,605.284973 1478.530640,588.484375 
	C1527.300659,553.457886 1560.493286,506.323120 1583.114502,451.318298 
	C1592.964111,427.368530 1598.727539,402.514008 1596.984131,376.357666 
	C1595.964722,361.063171 1591.504272,346.928009 1582.069336,334.676514 
	C1579.009277,330.702759 1575.334229,327.202393 1571.768799,323.297424 
	C1524.159790,391.005310 1477.668945,458.226929 1435.898804,529.436768 
M1735.307617,550.827881 
	C1721.456055,572.156982 1705.221558,591.547974 1687.078979,609.312195 
	C1682.602417,613.695312 1677.450562,617.551392 1672.114868,620.850159 
	C1666.444946,624.355408 1662.262695,621.848389 1661.965698,615.272278 
	C1661.816406,611.967712 1661.964844,608.584167 1662.508057,605.324524 
	C1666.349854,582.272461 1674.821777,560.853088 1685.668701,540.277100 
	C1702.971924,507.453918 1724.529053,477.447601 1746.716919,447.853699 
	C1748.977417,444.838470 1751.143799,441.752625 1753.925659,437.909698 
	C1751.536865,438.081604 1750.246216,438.014252 1749.031738,438.286499 
	C1735.639038,441.288330 1722.106812,442.888977 1708.383545,441.936340 
	C1704.854248,441.691345 1702.980103,443.063324 1701.244263,445.912598 
	C1692.410156,460.411804 1682.864868,474.505280 1674.592285,489.312714 
	C1661.134155,513.402161 1647.658203,537.546387 1635.745117,562.412598 
	C1627.233643,580.178894 1622.889282,599.470520 1623.954346,619.576660 
	C1624.982910,638.992676 1636.847656,648.472778 1655.885498,645.199768 
	C1666.926270,643.301758 1676.249023,638.174500 1684.602295,631.016113 
	C1704.388550,614.059814 1719.772461,593.321350 1734.869141,572.340942 
	C1735.957153,570.828918 1737.100098,569.356445 1737.834839,568.376099 
	C1738.206177,576.718262 1738.059082,585.227356 1739.054199,593.600708 
	C1742.267212,620.636475 1761.928711,635.236206 1788.848511,631.327087 
	C1802.985107,629.274231 1815.083862,622.874023 1826.177612,614.425659 
	C1862.500732,586.764343 1887.675293,550.640747 1905.083862,508.861603 
	C1912.385986,491.336945 1916.510742,473.071198 1915.036377,453.853485 
	C1913.625854,435.467346 1901.928833,423.790222 1883.615234,424.006989 
	C1875.419922,424.103943 1866.873657,425.199890 1859.132080,427.779388 
	C1821.942139,440.171417 1793.157104,464.261566 1770.489746,495.492157 
	C1757.816284,512.953247 1747.254883,531.947083 1735.307617,550.827881 
M2162.186279,479.693237 
	C2156.032471,489.000519 2149.812500,498.264709 2143.738281,507.623657 
	C2129.089844,530.193054 2112.634521,551.343689 2093.588867,570.355286 
	C2088.462158,575.472473 2082.435303,579.852783 2076.293213,583.734619 
	C2071.486328,586.772644 2067.415039,584.182495 2067.048096,578.398682 
	C2066.818604,574.776306 2067.015625,571.046082 2067.619385,567.465088 
	C2071.217529,546.125671 2078.374023,525.953857 2088.288330,506.769165 
	C2105.856689,472.773529 2127.385010,441.340363 2150.574707,410.990021 
	C2153.120850,407.657837 2155.379395,404.105896 2157.311279,401.319519 
	C2141.046631,402.476654 2124.816650,403.540314 2108.613770,404.920135 
	C2106.931396,405.063385 2104.792725,406.732727 2103.903564,408.287567 
	C2087.544434,436.892853 2071.002686,465.402924 2055.224365,494.328369 
	C2043.993164,514.917297 2034.592773,536.571167 2020.188843,555.268555 
	C2013.309204,564.198914 2005.748901,572.716858 1997.649170,580.544312 
	C1994.056763,584.015991 1988.579590,586.265930 1983.579102,587.399353 
	C1973.351929,589.717590 1965.119141,584.580078 1963.533447,575.172668 
	C1962.692871,570.186340 1962.310181,564.565430 1963.755371,559.855225 
	C1968.179810,545.434448 1972.642090,530.891235 1978.799805,517.162598 
	C1994.645630,481.834381 2015.656616,449.344360 2036.056030,416.550079 
	C2037.078979,414.905640 2038.083008,413.249451 2039.165039,411.485840 
	C2038.339966,411.223846 2038.031616,411.023376 2037.743408,411.049103 
	C2022.817749,412.382904 2007.887085,413.672180 1992.980713,415.198151 
	C1991.675049,415.331818 1990.082642,416.781006 1989.375000,418.041260 
	C1970.553833,451.558350 1951.222778,484.810638 1933.323242,518.815735 
	C1922.774536,538.856262 1918.314819,560.760498 1922.032104,583.669434 
	C1924.671997,599.938782 1934.816040,611.850830 1949.301392,614.469971 
	C1965.075317,617.322205 1979.808594,613.942688 1992.928711,604.601562 
	C2005.988525,595.303223 2016.139038,583.184082 2025.392212,570.249878 
	C2026.376099,568.874512 2027.415283,567.538635 2029.038696,565.369446 
	C2029.038696,567.429688 2029.073608,568.242676 2029.033203,569.052002 
	C2028.572998,578.288696 2029.074585,587.357727 2033.192139,595.902832 
	C2037.056152,603.921753 2043.419189,607.860291 2052.254150,608.036011 
	C2065.319824,608.295898 2077.167236,604.369995 2086.689453,595.657104 
	C2097.349121,585.903076 2107.842041,575.762573 2117.050293,564.664307 
	C2144.884033,531.118652 2167.590088,494.005096 2190.150391,456.834045 
	C2190.590576,456.108734 2190.706299,455.186310 2191.111084,453.927185 
	C2188.453369,454.233215 2186.295898,454.798584 2184.184570,454.660370 
	C2179.431396,454.349213 2176.700684,456.493073 2174.408203,460.568909 
	C2170.822998,466.943756 2166.573730,472.945251 2162.186279,479.693237 
M1388.578003,359.110870 
	C1375.747803,375.859924 1368.939575,394.487518 1370.972412,415.839355 
	C1372.401978,430.855865 1378.852539,443.714020 1388.004395,455.956818 
	C1421.582397,405.812836 1454.834229,356.155884 1488.600586,305.730591 
	C1448.502197,311.753876 1414.312012,326.759369 1388.578003,359.110870 
M1752.369751,379.899872 
	C1751.298584,379.447021 1750.260132,378.881500 1749.151123,378.558960 
	C1739.125488,375.643188 1730.332031,377.688995 1723.250732,385.502045 
	C1716.746094,392.678833 1715.585571,403.382324 1720.056519,412.096008 
	C1724.510376,420.776123 1733.564331,425.759186 1743.549316,425.025818 
	C1753.363647,424.304993 1762.037476,416.911926 1764.588623,407.093109 
	C1767.331909,396.536011 1763.185791,386.878967 1752.369751,379.899872 
z"/>
<path fill="#FF6A00" opacity="1.000000" stroke="none" 
	d="
M768.778442,739.771973 
	C757.877136,745.507019 746.435730,749.126892 733.966492,749.186401 
	C716.924133,749.267822 704.192078,742.097473 695.908508,727.144958 
	C695.515869,726.436218 695.056335,725.764587 694.527222,724.913513 
	C688.701599,729.619263 683.189392,734.438538 677.307190,738.753479 
	C660.648499,750.973877 642.328491,758.429565 621.242126,758.105164 
	C596.159485,757.719238 576.970215,743.758362 569.154297,719.801331 
	C568.607788,718.126099 568.117798,716.432495 567.452881,714.262146 
	C559.103821,721.388855 551.302979,728.333679 543.198486,734.904114 
	C527.895935,747.310120 511.885315,758.671265 493.688080,766.570984 
	C479.709839,772.639160 465.213074,774.683533 450.233734,771.448181 
	C427.691132,766.579346 411.494415,748.065125 407.998322,723.787537 
	C403.890106,695.259338 410.658691,668.879517 423.874023,643.873230 
	C449.613159,595.169067 486.782776,558.262817 537.304016,535.527344 
	C554.038513,527.996582 571.502319,523.441223 590.168396,525.831421 
	C611.904602,528.614746 624.688660,541.656250 627.191711,563.722290 
	C627.282532,564.522766 627.497070,565.309204 627.840454,567.044617 
	C630.494812,564.737000 632.689026,562.903259 634.802490,560.980713 
	C655.963318,541.731445 679.414795,526.164856 706.560669,516.634644 
	C720.707825,511.667908 735.230225,508.552063 750.164673,512.042786 
	C756.179932,513.448792 761.785828,516.606323 768.042664,519.156067 
	C767.544861,519.534546 767.919739,519.399170 768.017456,519.153564 
	C771.479309,510.453918 777.340332,507.023071 787.127136,507.798706 
	C812.205322,509.786255 836.337341,502.914368 860.700073,498.444336 
	C863.775574,497.880035 866.860840,497.368835 870.877563,496.670227 
	C869.821411,499.068024 869.050049,500.644836 868.419739,502.276154 
	C857.885193,529.540405 839.418213,551.835693 822.879822,575.370667 
	C804.666260,601.289368 787.762329,628.012451 775.732056,657.504639 
	C775.292297,658.582764 774.920166,659.688477 774.303345,661.413696 
	C774.156067,662.346375 774.221924,662.646667 774.287781,662.947021 
	C774.619263,662.725342 774.950806,662.503723 775.282349,662.282104 
	C784.694153,650.233154 794.653870,638.567078 803.398804,626.052063 
	C819.506531,603.000366 834.387390,579.196960 847.484680,554.202026 
	C857.045227,535.956726 868.726013,518.817932 879.622070,501.285583 
	C880.507996,499.860199 882.641785,498.316345 884.183594,498.328827 
	C903.016846,498.481323 921.794556,498.169525 940.240784,493.666870 
	C941.502747,496.111694 942.541443,498.123962 943.515930,500.011871 
	C950.512512,497.483887 957.034363,494.078735 963.938965,492.882904 
	C973.854492,491.165588 984.106262,489.985046 994.110413,490.520569 
	C1008.334961,491.281952 1019.814697,498.072113 1026.683350,510.804810 
	C1034.620239,505.026276 1041.991455,499.091827 1049.908936,494.008362 
	C1068.833252,481.857788 1089.420654,476.585205 1111.847900,480.998016 
	C1130.250488,484.618866 1143.021240,499.801849 1144.144043,518.582642 
	C1145.174561,535.817688 1140.695190,551.960083 1134.300903,567.619690 
	C1128.768799,581.168213 1122.551880,594.437073 1116.364990,608.429749 
	C1116.201660,609.393311 1116.310913,609.756714 1116.420166,610.120117 
	C1116.680176,609.814636 1116.940063,609.509216 1117.199951,609.203735 
	C1130.767212,587.680786 1144.342773,566.163025 1157.886963,544.625610 
	C1159.036987,542.796936 1160.352295,540.947021 1160.949585,538.918213 
	C1163.261719,531.063782 1168.880371,529.339417 1176.359375,528.874146 
	C1192.961060,527.841370 1209.510986,525.975403 1226.571411,524.404053 
	C1226.268188,525.368469 1226.188232,526.121216 1225.827759,526.698730 
	C1199.735962,568.496399 1173.948608,610.489624 1147.359619,651.968933 
	C1135.561279,670.374573 1121.164307,686.905945 1104.177124,700.889832 
	C1090.294678,712.317993 1074.649292,719.483154 1056.229126,719.209900 
	C1036.258179,718.913635 1022.026672,706.200256 1018.022339,685.083008 
	C1015.044861,669.381226 1018.076294,654.219543 1022.580078,639.319092 
	C1030.228638,614.015076 1042.343018,590.647583 1054.528198,567.329346 
	C1057.959839,560.762268 1061.239868,554.115845 1064.589478,547.505859 
	C1064.250122,547.225830 1063.910767,546.945801 1063.571533,546.665771 
	C1061.643921,548.276917 1059.654541,549.820129 1057.798706,551.510071 
	C1043.267944,564.741882 1031.447754,580.184448 1021.178101,596.847351 
	C1006.747498,620.261841 993.940247,644.519958 983.658508,670.066040 
	C983.348083,670.837402 983.115112,671.641541 982.777588,672.399963 
	C977.784363,683.619019 977.486145,693.706177 988.758850,701.804382 
	C992.341003,704.377747 995.026306,708.199402 998.404724,711.746765 
	C997.225586,712.486877 996.365845,713.218872 995.372498,713.620728 
	C983.363892,718.480225 971.664368,724.501831 959.247009,727.873291 
	C929.269958,736.012390 906.026917,717.954773 905.057983,686.731384 
	C904.446228,667.015686 909.478027,648.320068 917.441711,630.619751 
	C928.566406,605.893677 940.741211,581.640015 952.715088,556.586182 
	C952.894714,555.710022 952.825928,555.432007 952.757080,555.153992 
	C952.383362,555.314087 952.009644,555.474121 951.635925,555.634216 
	C939.190491,564.420166 930.103699,576.344116 921.244385,588.430908 
	C896.362000,622.378174 879.031555,660.324280 863.020203,698.954407 
	C861.621704,702.328613 860.519226,705.832153 859.005310,709.150635 
	C854.993408,717.945129 856.849670,727.039673 857.698914,736.699951 
	C828.052917,739.458557 798.655151,742.194153 768.880615,744.964722 
	C769.095581,743.479675 769.253296,742.389771 769.622803,740.675781 
	C769.783752,739.805298 769.732910,739.558899 769.682068,739.312500 
	C769.380859,739.465698 769.079651,739.618835 768.778442,739.771973 
M909.159851,556.131470 
	C909.023376,556.010681 908.886902,555.889954 908.904602,555.088867 
	C919.624207,540.988098 930.343811,526.887268 940.897278,513.005127 
	C941.451172,513.184875 941.152161,512.987244 940.872314,513.011536 
	C925.314270,514.357666 909.751221,515.655396 894.212097,517.194580 
	C892.740967,517.340332 890.956848,518.712463 890.105347,520.025696 
	C884.037354,529.384338 877.593384,538.565674 872.352173,548.381775 
	C855.009094,580.863159 836.462830,612.568420 815.165161,642.652893 
	C801.253357,662.304260 785.893250,680.665161 768.362854,697.151733 
	C764.650574,700.642944 760.266174,703.577393 755.800110,706.066406 
	C751.014648,708.733521 747.355896,706.987549 746.796814,701.607971 
	C746.307800,696.902344 746.721252,691.964294 747.572815,687.281128 
	C752.055420,662.628784 761.606384,639.881042 773.687805,618.032715 
	C790.742310,587.190979 810.945312,558.489197 832.172791,530.451599 
	C833.899536,528.170837 835.370422,525.696411 837.303101,522.797729 
	C835.866211,522.797729 835.380005,522.760620 834.900879,522.803223 
	C819.178101,524.198975 803.447693,525.521057 787.747009,527.132629 
	C786.207275,527.290710 784.371704,528.942383 783.485657,530.395996 
	C776.814514,541.339661 770.355286,552.412415 763.803345,563.429199 
	C763.109436,564.596130 762.245178,565.661743 761.011719,567.409424 
	C761.011719,560.301697 761.507263,554.113464 760.905762,548.033691 
	C759.747559,536.326721 753.244019,530.538086 741.605042,529.806396 
	C730.555603,529.111938 720.086060,531.627075 709.935791,535.608215 
	C671.918762,550.519348 641.941467,575.740967 617.810913,608.228943 
	C611.967163,616.096619 607.846741,625.348389 601.479492,632.704956 
	C574.795898,663.534790 545.657532,691.837708 511.783295,714.825806 
	C505.518097,719.077576 498.582306,722.754517 491.445251,725.215210 
	C479.547241,729.317261 470.529449,723.815369 467.930389,711.504883 
	C464.827911,696.809692 468.862213,682.861084 472.698059,669.362976 
	C478.573792,669.362976 483.882019,669.547180 489.173706,669.329773 
	C507.931671,668.559265 524.911560,661.863647 541.060974,652.947388 
	C566.846008,638.711304 587.972229,619.604919 601.442383,592.952637 
	C606.144104,583.649841 609.529114,573.889587 608.070984,563.186584 
	C606.886841,554.495117 602.427185,547.959290 593.653076,546.029053 
	C587.582458,544.693481 580.889709,543.597961 574.954773,544.788025 
	C563.635559,547.058044 552.014099,549.666565 541.650330,554.541626 
	C492.631653,577.599792 457.771027,614.924072 435.319275,663.913086 
	C427.869049,680.169189 424.783936,697.477173 425.945068,715.487366 
	C427.701050,742.723694 446.016754,757.573425 472.888550,753.113464 
	C487.053772,750.762451 498.946106,743.274170 510.581787,735.494812 
	C537.489807,717.504761 560.538696,695.105286 582.672729,671.699829 
	C583.889709,670.412964 584.719604,668.760071 585.729675,667.277588 
	C586.197815,667.631348 586.666016,667.985107 587.134216,668.338867 
	C586.934143,669.742920 586.624512,671.141357 586.551514,672.552002 
	C586.003357,683.134521 584.377991,693.809448 585.216919,704.285156 
	C587.029358,726.918518 601.960693,739.547668 624.615173,739.109436 
	C638.569763,738.839478 650.968506,733.864319 662.319153,726.139771 
	C679.703796,714.309021 694.107178,699.332092 707.129150,682.945251 
	C707.842407,682.047607 708.699951,681.264587 709.056763,680.887024 
	C709.056763,688.783569 708.617554,696.781128 709.143799,704.714600 
	C710.427307,724.064392 722.839233,733.214355 741.883606,729.573242 
	C750.077637,728.006653 757.896912,725.284180 763.947937,719.693298 
	C774.928650,709.547607 785.687500,699.088867 795.738770,688.033325 
	C803.648865,679.332825 810.355286,669.537964 817.596436,660.229248 
	C817.756348,660.295837 817.916321,660.362427 818.076294,660.428955 
	C810.602234,681.108826 803.128113,701.788635 795.299866,723.448425 
	C809.819336,722.122437 823.300781,720.891235 835.731628,719.755981 
	C839.515808,709.092407 842.642151,699.095337 846.592712,689.435303 
	C852.131653,675.891602 858.050659,662.490417 864.220276,649.220398 
	C878.588440,618.316711 895.582764,588.983276 917.346252,562.604614 
	C928.365051,549.249146 940.889465,537.563110 956.560730,529.873535 
	C961.063660,527.664062 966.281250,526.308655 971.286255,525.867615 
	C978.633423,525.220337 981.829590,529.178101 980.418396,536.384827 
	C979.496643,541.091980 978.359009,545.878174 976.442566,550.244690 
	C972.099976,560.138550 967.161133,569.768982 962.563354,579.552856 
	C952.592163,600.771301 942.264954,621.836731 932.900391,643.320862 
	C927.034302,656.778931 923.487549,671.070435 924.000610,686.006287 
	C924.402344,697.699585 930.205750,707.595703 938.251221,709.733582 
	C947.993347,712.322266 957.135681,710.102539 966.254517,705.539917 
	C961.170898,699.433533 959.202454,692.730164 960.462036,685.556396 
	C961.749695,678.223206 962.851318,670.541748 965.939148,663.897949 
	C976.165405,641.894897 986.597778,619.936462 998.172791,598.624451 
	C1012.417603,572.396790 1030.379150,548.846985 1053.823853,529.932251 
	C1061.478760,523.756531 1069.309814,517.802979 1079.296753,515.739990 
	C1090.499878,513.425720 1095.696777,518.074463 1092.144409,528.868530 
	C1088.216431,540.803650 1082.853149,552.310425 1077.540161,563.736511 
	C1066.813965,586.804260 1055.249634,609.491333 1044.914307,632.728271 
	C1038.813354,646.444763 1035.214355,661.101013 1035.997314,676.394470 
	C1036.946289,694.926758 1048.192383,703.306091 1066.276978,699.387085 
	C1076.323120,697.210144 1085.378540,692.784668 1092.538818,685.721497 
	C1103.536865,674.872375 1114.566772,663.847778 1124.025757,651.686401 
	C1149.125610,619.415588 1169.199829,583.806213 1190.241577,548.863770 
	C1190.537720,548.371887 1190.571533,547.722046 1190.845581,546.711365 
	C1187.302246,547.040283 1184.068359,546.962097 1181.065063,547.755859 
	C1179.147461,548.262573 1176.969604,549.682251 1175.932007,551.335083 
	C1162.128296,573.325989 1148.615723,595.499878 1134.801270,617.484009 
	C1124.700806,633.557678 1111.778687,647.264648 1097.501587,659.641846 
	C1092.522949,663.958008 1086.909912,667.696106 1081.143555,670.901123 
	C1076.572876,673.441528 1073.926514,671.500793 1073.468262,666.281067 
	C1073.353882,664.978455 1073.525024,663.618408 1073.765381,662.321899 
	C1076.895996,645.431458 1084.539795,630.292603 1091.721313,614.897522 
	C1101.695801,593.514587 1111.252441,571.922424 1120.373779,550.162292 
	C1124.440063,540.461487 1126.073364,529.985291 1125.178589,519.323059 
	C1124.300049,508.852661 1118.146606,501.521393 1107.904297,499.469177 
	C1103.547607,498.596222 1098.968506,498.439087 1094.506226,498.556854 
	C1077.029297,499.018097 1062.542847,507.001221 1049.207642,517.403870 
	C1033.911133,529.336365 1022.489197,544.744263 1011.453369,560.455505 
	C1010.538940,561.757446 1009.553345,563.009399 1008.600830,564.284546 
	C1008.278625,561.835571 1008.914734,559.824097 1009.266968,557.764099 
	C1010.636230,549.755981 1012.772339,541.761536 1013.045410,533.708496 
	C1013.575317,518.081177 1004.929138,509.761169 989.394287,508.889709 
	C971.356018,507.877838 955.776855,514.151245 941.359436,524.216309 
	C928.768860,533.005920 919.088989,544.682739 909.159851,556.131470 
M491.500641,705.102844 
	C503.017670,698.954834 513.232727,691.028259 523.360352,682.852356 
	C511.813385,684.710205 500.722168,686.445618 489.661560,688.357971 
	C488.668121,688.529724 487.208496,689.760315 487.094116,690.645203 
	C486.407715,695.954590 486.051666,701.306641 485.507477,707.529907 
	C488.099213,706.507629 489.452698,705.973755 491.500641,705.102844 
M524.630615,681.541260 
	C524.630615,681.541260 524.323120,681.406738 524.323120,681.406738 
	C524.323120,681.406738 524.389343,681.665527 524.630615,681.541260 
z"/>
<path fill="#FF6A00" opacity="1.000000" stroke="none" 
	d="
M133.991959,794.009644 
	C109.843781,775.064331 97.379250,749.880066 93.444244,720.408203 
	C88.853577,686.025696 95.433014,653.775024 114.414726,624.420410 
	C132.730682,596.095459 159.206360,581.199585 192.310532,576.959534 
	C216.212982,573.898071 238.951187,577.039673 259.713257,589.576660 
	C281.989960,603.028137 295.643829,622.069702 294.973450,649.224792 
	C294.594269,664.584839 288.996185,678.249146 277.697601,688.409729 
	C266.380554,698.586914 253.661255,707.204651 240.471817,717.339417 
	C239.551788,707.764893 238.821167,699.760925 238.001526,691.766052 
	C237.407944,685.976135 237.123077,680.108826 235.934052,674.436646 
	C234.281540,666.553467 231.467606,664.750122 223.327377,664.610657 
	C210.898300,664.397644 200.760651,668.893494 192.543015,678.373840 
	C177.251328,696.015259 173.969299,722.070496 185.128922,740.100281 
	C192.857162,752.586243 203.569366,756.665405 217.648376,752.388428 
	C229.566696,748.767822 239.391525,741.667053 248.421753,733.390869 
	C267.776947,715.651978 282.860077,694.444702 296.256500,672.137573 
	C315.623932,639.887756 334.161194,607.139343 353.039062,574.595825 
	C353.429504,573.922791 353.655212,573.154297 354.260315,571.706421 
	C348.063354,571.996338 342.474518,572.202026 336.892761,572.528198 
	C304.151672,574.441589 276.243744,564.678711 257.842834,536.404175 
	C239.433258,508.116333 238.789001,477.332977 250.492065,446.339264 
	C262.181213,415.382507 286.170807,396.300446 315.345245,383.284515 
	C337.957703,373.196167 362.222137,369.540863 386.776917,368.088715 
	C419.877594,366.131195 452.574097,370.108887 485.322601,374.498657 
	C527.257690,380.119904 568.844055,377.620392 609.222961,364.199158 
	C631.695862,356.729614 648.430481,342.047333 658.559143,320.304779 
	C660.385620,316.384003 662.186035,312.427521 664.388062,308.718842 
	C665.089783,307.536865 667.159546,306.298157 668.417908,306.467041 
	C673.683655,307.173645 678.970398,308.077179 684.083618,309.503204 
	C702.589722,314.664368 716.668579,333.082764 718.076294,352.737579 
	C719.537537,373.139191 711.361084,388.980408 696.018799,401.621918 
	C673.854370,419.884674 648.004028,429.747253 620.058411,435.000122 
	C592.645630,440.152771 565.014282,439.656372 537.363953,438.697083 
	C533.195190,438.552429 530.821716,439.668274 528.427429,443.134003 
	C478.772614,515.009399 434.351501,590.057129 392.080933,666.448792 
	C374.409088,698.385498 355.119965,729.363525 330.797760,756.848450 
	C308.957458,781.528748 284.237976,802.328613 252.068863,812.119873 
	C210.077087,824.900818 170.855103,817.873779 133.991959,794.009644 
M367.581329,388.995514 
	C365.444977,389.328552 363.305786,389.644684 361.172668,389.997223 
	C337.887024,393.845947 316.257721,401.360443 297.017151,415.760864 
	C263.012421,441.211395 255.968170,482.859985 266.928345,512.852539 
	C277.155396,540.838806 304.372772,556.094360 333.153442,553.247498 
	C332.094482,551.764526 331.128021,550.506165 330.261993,549.182129 
	C326.074829,542.780518 321.526703,536.577148 317.816406,529.908569 
	C305.735352,508.195129 304.964386,486.196136 317.316833,464.260803 
	C337.057281,429.206024 367.513275,410.234283 407.251770,408.450592 
	C427.716248,407.532043 448.384308,410.944794 468.947662,412.561798 
	C474.801636,413.022125 480.611115,414.048920 487.141968,414.908142 
	C483.013397,418.696106 479.529572,421.766937 476.184357,424.981934 
	C452.431213,447.810120 433.624847,474.560883 416.951294,502.656799 
	C390.364624,547.456787 364.964355,592.959473 338.901398,638.072083 
	C320.402039,670.092651 301.761566,702.063538 277.607361,730.311584 
	C263.973663,746.255981 248.813995,760.470642 228.922577,768.479126 
	C202.132462,779.265015 178.523804,770.324341 165.912155,744.376770 
	C155.018723,721.964294 157.936981,699.825745 169.433395,678.773865 
	C182.043411,655.682678 201.581741,643.682434 228.527756,646.013672 
	C239.694412,646.979797 248.109009,652.579102 252.101059,663.312988 
	C254.258347,669.113586 255.328461,675.318542 256.869995,681.267700 
	C270.244263,673.838013 278.462433,655.767639 275.521729,640.080017 
	C271.738403,619.897339 257.943298,608.671082 240.386383,601.026733 
	C225.131439,594.384521 209.146606,593.688171 192.835022,595.986694 
	C166.513290,599.695740 145.325592,611.643555 130.720596,634.240601 
	C112.465118,662.485657 107.049522,693.251770 113.741684,726.034241 
	C118.330887,748.514954 128.661819,768.173645 148.375000,780.697632 
	C176.115005,798.321045 206.719177,803.830017 238.878922,796.205200 
	C270.640717,788.674744 294.707001,768.912415 315.927124,745.137817 
	C338.924896,719.371582 357.191040,690.296509 373.796875,660.259827 
	C418.052704,580.209534 464.740906,501.688995 516.785706,426.403656 
	C520.991211,420.320251 525.050903,418.690918 532.154297,419.175232 
	C560.943848,421.138123 589.735413,421.466644 618.301147,416.026825 
	C642.913513,411.339874 665.595764,402.456757 684.930664,386.097351 
	C695.095764,377.496552 700.582764,366.932526 699.079712,353.191437 
	C697.679810,340.392883 688.047546,329.218262 676.240173,327.461121 
	C675.722351,328.420959 675.140564,329.418152 674.633240,330.451935 
	C662.760986,354.643524 643.827393,371.251312 618.947510,380.846710 
	C590.632385,391.766937 560.805054,394.585724 530.759521,395.961670 
	C501.745056,397.290436 473.391357,391.402435 444.757874,388.564331 
	C419.315002,386.042419 393.884277,385.600586 367.581329,388.995514 
M375.480713,434.913483 
	C359.215424,442.154877 346.339600,453.198273 336.693298,468.274078 
	C325.029388,486.503113 324.062775,504.858185 335.701447,523.154480 
	C341.933777,532.951904 349.327393,542.013306 356.255585,551.363403 
	C357.973633,553.682068 359.919800,555.831665 362.022522,558.375244 
	C387.832306,513.399414 412.811401,468.845093 446.244110,428.858032 
	C440.393860,428.306549 435.445892,427.754181 430.484161,427.387726 
	C411.885437,426.014221 393.513641,426.436584 375.480713,434.913483 
z"/>
<path fill="#FFFFFD" opacity="1.000000" stroke="none" 
	d="
M1771.604004,823.799500 
	C1746.166626,826.540833 1721.202759,829.613708 1696.158081,831.731323 
	C1667.130981,834.185791 1638.057983,836.364197 1608.960327,837.661377 
	C1550.374023,840.273254 1491.759521,842.258301 1433.152954,844.398865 
	C1402.347900,845.523987 1371.523682,846.168823 1340.727905,847.491699 
	C1276.499023,850.250916 1212.276489,853.180542 1148.064453,856.309143 
	C1111.964722,858.068054 1075.871216,860.064270 1039.811401,862.496521 
	C998.945435,865.252991 958.091248,868.277710 917.285400,871.804626 
	C869.010254,875.977234 820.757019,880.471680 772.562378,885.481873 
	C742.113403,888.647217 711.748657,892.719360 681.419434,896.914368 
	C647.122192,901.658203 612.786377,906.302490 578.684814,912.239197 
	C530.008667,920.713257 482.401550,933.465759 436.936462,953.136230 
	C400.475677,968.911072 365.995087,988.162354 338.487671,1017.503845 
	C329.592285,1026.992310 322.886017,1038.533569 315.185120,1049.140625 
	C314.614227,1049.927002 314.097992,1050.753052 313.323486,1051.907837 
	C248.186691,1021.928223 183.173294,992.005432 117.153893,961.619629 
	C121.202164,956.694214 124.665253,951.895630 128.713684,947.655884 
	C146.851181,928.661316 169.092621,915.701782 192.666489,904.779663 
	C245.940109,880.097290 302.372986,865.524109 359.638306,854.363953 
	C405.362793,845.452942 451.385559,837.760193 497.538910,831.450439 
	C542.720276,825.273499 588.178406,820.897827 633.617004,816.884949 
	C684.864685,812.359070 736.208069,808.850220 787.545288,805.431335 
	C814.967651,803.605164 842.454590,802.559021 869.929810,801.754028 
	C949.517517,799.422058 1029.103149,796.670715 1108.710449,795.454224 
	C1180.355835,794.359314 1252.034790,795.613037 1323.688232,794.838928 
	C1390.500122,794.117126 1457.307129,792.417847 1524.098755,790.529907 
	C1575.374756,789.080505 1626.640747,787.029907 1677.879028,784.575745 
	C1722.470459,782.439941 1767.042480,779.728882 1811.575806,776.599854 
	C1854.091309,773.612671 1896.596802,769.875488 1938.475708,761.671753 
	C1996.707153,750.264709 2052.736084,732.605591 2102.853516,699.589172 
	C2118.812256,689.075989 2133.330322,676.907288 2144.125488,660.846680 
	C2150.721680,651.032776 2154.515869,640.433289 2153.275879,628.368835 
	C2151.323730,609.371826 2141.571777,597.642639 2123.127441,592.321960 
	C2122.185547,592.050232 2121.230225,591.823425 2119.868896,591.468140 
	C2120.331055,590.576782 2120.580078,589.841980 2121.030762,589.264526 
	C2133.219971,573.646912 2145.556885,558.142151 2157.525391,542.357849 
	C2159.845703,539.297546 2161.643311,538.802856 2164.856689,540.337219 
	C2187.559326,551.177002 2199.116455,569.878967 2201.849609,594.168213 
	C2204.605957,618.663147 2196.680176,640.806580 2185.151367,661.965393 
	C2170.903320,688.115173 2149.827148,707.634583 2125.393799,723.920105 
	C2092.548828,745.812439 2056.484863,760.783875 2019.240601,773.227478 
	C1971.272461,789.254028 1922.150391,800.639893 1872.335205,808.928101 
	C1839.006958,814.473267 1805.479980,818.823608 1771.604004,823.799500 
z"/>
<path fill="#FFFFFD" opacity="1.000000" stroke="none" 
	d="
M1524.010986,575.013367 
	C1564.772339,533.300415 1594.760376,485.554108 1610.178711,429.339233 
	C1617.423706,402.923950 1619.604004,376.068329 1610.826660,349.581268 
	C1599.460327,315.281952 1574.560669,294.528961 1539.853394,288.672577 
	C1478.324341,278.290314 1423.801270,294.111816 1380.058716,339.996124 
	C1360.372803,360.645966 1350.086792,385.754608 1351.957520,414.988281 
	C1353.214844,434.639038 1361.318970,451.517365 1372.640503,467.146973 
	C1373.886353,468.867157 1375.158691,470.568115 1376.521484,472.417328 
	C1340.684692,474.450989 1308.807617,458.181061 1302.408813,425.874390 
	C1298.567993,406.482239 1303.542480,388.496368 1312.392822,371.449677 
	C1324.379639,348.361481 1342.285156,330.226868 1362.614380,314.564819 
	C1402.942749,283.494934 1448.690674,265.997406 1499.450317,261.778534 
	C1534.801270,258.840302 1568.949707,263.572357 1601.061157,279.166351 
	C1629.886719,293.164673 1645.963013,317.522278 1653.958374,347.645111 
	C1662.805176,380.975647 1660.332764,414.281677 1652.583496,447.477753 
	C1640.363159,499.827972 1612.406250,543.114380 1575.585571,581.260315 
	C1543.936279,614.048584 1507.733643,640.139832 1464.389282,655.376160 
	C1440.317505,663.837830 1415.445190,668.071655 1389.916138,667.832275 
	C1379.392334,667.733582 1369.067627,666.156067 1359.379517,661.468567 
	C1341.892212,653.007385 1334.623535,637.288879 1336.531128,614.573120 
	C1338.904663,586.305115 1350.444214,560.944763 1363.165039,536.155212 
	C1383.577637,496.376007 1408.557251,459.369843 1433.340088,422.267731 
	C1455.352783,389.312592 1477.529175,356.466431 1499.778564,323.670776 
	C1500.865601,322.068542 1503.364502,320.439545 1505.178467,320.469788 
	C1520.744263,320.729370 1536.106445,319.228851 1551.333252,316.090454 
	C1551.791016,315.996124 1552.304443,316.172516 1553.587646,316.304565 
	C1552.073975,318.506653 1550.825439,320.373566 1549.526733,322.204926 
	C1507.135986,381.984802 1465.937866,442.561157 1428.143677,505.379913 
	C1410.292969,535.050171 1392.896973,565.037109 1380.461182,597.471924 
	C1376.699951,607.281982 1374.286133,617.854980 1372.986328,628.294067 
	C1371.656982,638.969971 1376.883179,643.071899 1387.719604,642.204102 
	C1433.611694,638.528564 1472.662598,619.121643 1507.449707,590.010681 
	C1513.066284,585.310486 1518.331177,580.190063 1524.010986,575.013367 
z"/>
<path fill="#FFFFFE" opacity="1.000000" stroke="none" 
	d="
M1436.073486,529.114746 
	C1477.668945,458.226929 1524.159790,391.005310 1571.768799,323.297424 
	C1575.334229,327.202393 1579.009277,330.702759 1582.069336,334.676514 
	C1591.504272,346.928009 1595.964722,361.063171 1596.984131,376.357666 
	C1598.727539,402.514008 1592.964111,427.368530 1583.114502,451.318298 
	C1560.493286,506.323120 1527.300659,553.457886 1478.530640,588.484375 
	C1455.137939,605.284973 1429.391724,617.083557 1400.647095,621.530762 
	C1398.219360,621.906372 1395.768555,622.133057 1392.272217,622.557068 
	C1393.151001,619.099426 1393.459351,616.133789 1394.629517,613.559998 
	C1403.707397,593.590942 1412.752563,573.602112 1422.238037,553.825806 
	C1426.259766,545.440979 1431.313965,537.551453 1436.073486,529.114746 
z"/>
<path fill="#FFFFFD" opacity="1.000000" stroke="none" 
	d="
M1735.524780,550.539062 
	C1747.254883,531.947083 1757.816284,512.953247 1770.489746,495.492157 
	C1793.157104,464.261566 1821.942139,440.171417 1859.132080,427.779388 
	C1866.873657,425.199890 1875.419922,424.103943 1883.615234,424.006989 
	C1901.928833,423.790222 1913.625854,435.467346 1915.036377,453.853485 
	C1916.510742,473.071198 1912.385986,491.336945 1905.083862,508.861603 
	C1887.675293,550.640747 1862.500732,586.764343 1826.177612,614.425659 
	C1815.083862,622.874023 1802.985107,629.274231 1788.848511,631.327087 
	C1761.928711,635.236206 1742.267212,620.636475 1739.054199,593.600708 
	C1738.059082,585.227356 1738.206177,576.718262 1737.834839,568.376099 
	C1737.100098,569.356445 1735.957153,570.828918 1734.869141,572.340942 
	C1719.772461,593.321350 1704.388550,614.059814 1684.602295,631.016113 
	C1676.249023,638.174500 1666.926270,643.301758 1655.885498,645.199768 
	C1636.847656,648.472778 1624.982910,638.992676 1623.954346,619.576660 
	C1622.889282,599.470520 1627.233643,580.178894 1635.745117,562.412598 
	C1647.658203,537.546387 1661.134155,513.402161 1674.592285,489.312714 
	C1682.864868,474.505280 1692.410156,460.411804 1701.244263,445.912598 
	C1702.980103,443.063324 1704.854248,441.691345 1708.383545,441.936340 
	C1722.106812,442.888977 1735.639038,441.288330 1749.031738,438.286499 
	C1750.246216,438.014252 1751.536865,438.081604 1753.925659,437.909698 
	C1751.143799,441.752625 1748.977417,444.838470 1746.716919,447.853699 
	C1724.529053,477.447601 1702.971924,507.453918 1685.668701,540.277100 
	C1674.821777,560.853088 1666.349854,582.272461 1662.508057,605.324524 
	C1661.964844,608.584167 1661.816406,611.967712 1661.965698,615.272278 
	C1662.262695,621.848389 1666.444946,624.355408 1672.114868,620.850159 
	C1677.450562,617.551392 1682.602417,613.695312 1687.078979,609.312195 
	C1705.221558,591.547974 1721.456055,572.156982 1735.524780,550.539062 
M1802.111084,498.625580 
	C1789.835083,519.942383 1782.020874,542.770813 1779.350342,567.241638 
	C1778.392578,576.016968 1778.154053,584.852112 1781.788330,593.296326 
	C1784.603271,599.836975 1789.247070,603.626892 1796.484375,604.327148 
	C1804.860352,605.137756 1812.215820,602.484192 1819.166504,598.226501 
	C1832.572510,590.014404 1843.269287,578.881470 1852.872925,566.625305 
	C1866.759888,548.902283 1879.840332,530.712158 1887.114502,509.015167 
	C1890.863770,497.831940 1889.571167,488.082275 1880.482666,479.946777 
	C1876.299316,476.202026 1874.941650,471.597565 1877.308716,466.432343 
	C1879.779175,461.041229 1884.013550,457.554871 1890.178833,457.850037 
	C1893.421875,458.005280 1896.609009,459.329529 1899.793457,460.118958 
	C1899.304932,444.467926 1890.044922,437.155060 1874.787598,440.562653 
	C1872.199097,441.140747 1869.623779,441.858490 1867.125366,442.745575 
	C1838.525269,452.899750 1817.817505,472.308472 1802.111084,498.625580 
z"/>
<path fill="#FFFFFD" opacity="1.000000" stroke="none" 
	d="
M2162.395996,479.399048 
	C2166.573730,472.945251 2170.822998,466.943756 2174.408203,460.568909 
	C2176.700684,456.493073 2179.431396,454.349213 2184.184570,454.660370 
	C2186.295898,454.798584 2188.453369,454.233215 2191.111084,453.927185 
	C2190.706299,455.186310 2190.590576,456.108734 2190.150391,456.834045 
	C2167.590088,494.005096 2144.884033,531.118652 2117.050293,564.664307 
	C2107.842041,575.762573 2097.349121,585.903076 2086.689453,595.657104 
	C2077.167236,604.369995 2065.319824,608.295898 2052.254150,608.036011 
	C2043.419189,607.860291 2037.056152,603.921753 2033.192139,595.902832 
	C2029.074585,587.357727 2028.572998,578.288696 2029.033203,569.052002 
	C2029.073608,568.242676 2029.038696,567.429688 2029.038696,565.369446 
	C2027.415283,567.538635 2026.376099,568.874512 2025.392212,570.249878 
	C2016.139038,583.184082 2005.988525,595.303223 1992.928711,604.601562 
	C1979.808594,613.942688 1965.075317,617.322205 1949.301392,614.469971 
	C1934.816040,611.850830 1924.671997,599.938782 1922.032104,583.669434 
	C1918.314819,560.760498 1922.774536,538.856262 1933.323242,518.815735 
	C1951.222778,484.810638 1970.553833,451.558350 1989.375000,418.041260 
	C1990.082642,416.781006 1991.675049,415.331818 1992.980713,415.198151 
	C2007.887085,413.672180 2022.817749,412.382904 2037.743408,411.049103 
	C2038.031616,411.023376 2038.339966,411.223846 2039.165039,411.485840 
	C2038.083008,413.249451 2037.078979,414.905640 2036.056030,416.550079 
	C2015.656616,449.344360 1994.645630,481.834381 1978.799805,517.162598 
	C1972.642090,530.891235 1968.179810,545.434448 1963.755371,559.855225 
	C1962.310181,564.565430 1962.692871,570.186340 1963.533447,575.172668 
	C1965.119141,584.580078 1973.351929,589.717590 1983.579102,587.399353 
	C1988.579590,586.265930 1994.056763,584.015991 1997.649170,580.544312 
	C2005.748901,572.716858 2013.309204,564.198914 2020.188843,555.268555 
	C2034.592773,536.571167 2043.993164,514.917297 2055.224365,494.328369 
	C2071.002686,465.402924 2087.544434,436.892853 2103.903564,408.287567 
	C2104.792725,406.732727 2106.931396,405.063385 2108.613770,404.920135 
	C2124.816650,403.540314 2141.046631,402.476654 2157.311279,401.319519 
	C2155.379395,404.105896 2153.120850,407.657837 2150.574707,410.990021 
	C2127.385010,441.340363 2105.856689,472.773529 2088.288330,506.769165 
	C2078.374023,525.953857 2071.217529,546.125671 2067.619385,567.465088 
	C2067.015625,571.046082 2066.818604,574.776306 2067.048096,578.398682 
	C2067.415039,584.182495 2071.486328,586.772644 2076.293213,583.734619 
	C2082.435303,579.852783 2088.462158,575.472473 2093.588867,570.355286 
	C2112.634521,551.343689 2129.089844,530.193054 2143.738281,507.623657 
	C2149.812500,498.264709 2156.032471,489.000519 2162.395996,479.399048 
z"/>
<path fill="#FFFFFD" opacity="1.000000" stroke="none" 
	d="
M1388.790527,358.824341 
	C1414.312012,326.759369 1448.502197,311.753876 1488.600586,305.730591 
	C1454.834229,356.155884 1421.582397,405.812836 1388.004395,455.956818 
	C1378.852539,443.714020 1372.401978,430.855865 1370.972412,415.839355 
	C1368.939575,394.487518 1375.747803,375.859924 1388.790527,358.824341 
z"/>
<path fill="#FFFFFC" opacity="1.000000" stroke="none" 
	d="
M1752.710571,380.060242 
	C1763.185791,386.878967 1767.331909,396.536011 1764.588623,407.093109 
	C1762.037476,416.911926 1753.363647,424.304993 1743.549316,425.025818 
	C1733.564331,425.759186 1724.510376,420.776123 1720.056519,412.096008 
	C1715.585571,403.382324 1716.746094,392.678833 1723.250732,385.502045 
	C1730.332031,377.688995 1739.125488,375.643188 1749.151123,378.558960 
	C1750.260132,378.881500 1751.298584,379.447021 1752.710571,380.060242 
z"/>
<path fill="#FFFFFD" opacity="1.000000" stroke="none" 
	d="
M909.565613,556.503723 
	C919.088989,544.682739 928.768860,533.005920 941.359436,524.216309 
	C955.776855,514.151245 971.356018,507.877838 989.394287,508.889709 
	C1004.929138,509.761169 1013.575317,518.081177 1013.045410,533.708496 
	C1012.772339,541.761536 1010.636230,549.755981 1009.266968,557.764099 
	C1008.914734,559.824097 1008.278625,561.835571 1008.600830,564.284546 
	C1009.553345,563.009399 1010.538940,561.757446 1011.453369,560.455505 
	C1022.489197,544.744263 1033.911133,529.336365 1049.207642,517.403870 
	C1062.542847,507.001221 1077.029297,499.018097 1094.506226,498.556854 
	C1098.968506,498.439087 1103.547607,498.596222 1107.904297,499.469177 
	C1118.146606,501.521393 1124.300049,508.852661 1125.178589,519.323059 
	C1126.073364,529.985291 1124.440063,540.461487 1120.373779,550.162292 
	C1111.252441,571.922424 1101.695801,593.514587 1091.721313,614.897522 
	C1084.539795,630.292603 1076.895996,645.431458 1073.765381,662.321899 
	C1073.525024,663.618408 1073.353882,664.978455 1073.468262,666.281067 
	C1073.926514,671.500793 1076.572876,673.441528 1081.143555,670.901123 
	C1086.909912,667.696106 1092.522949,663.958008 1097.501587,659.641846 
	C1111.778687,647.264648 1124.700806,633.557678 1134.801270,617.484009 
	C1148.615723,595.499878 1162.128296,573.325989 1175.932007,551.335083 
	C1176.969604,549.682251 1179.147461,548.262573 1181.065063,547.755859 
	C1184.068359,546.962097 1187.302246,547.040283 1190.845581,546.711365 
	C1190.571533,547.722046 1190.537720,548.371887 1190.241577,548.863770 
	C1169.199829,583.806213 1149.125610,619.415588 1124.025757,651.686401 
	C1114.566772,663.847778 1103.536865,674.872375 1092.538818,685.721497 
	C1085.378540,692.784668 1076.323120,697.210144 1066.276978,699.387085 
	C1048.192383,703.306091 1036.946289,694.926758 1035.997314,676.394470 
	C1035.214355,661.101013 1038.813354,646.444763 1044.914307,632.728271 
	C1055.249634,609.491333 1066.813965,586.804260 1077.540161,563.736511 
	C1082.853149,552.310425 1088.216431,540.803650 1092.144409,528.868530 
	C1095.696777,518.074463 1090.499878,513.425720 1079.296753,515.739990 
	C1069.309814,517.802979 1061.478760,523.756531 1053.823853,529.932251 
	C1030.379150,548.846985 1012.417603,572.396790 998.172791,598.624451 
	C986.597778,619.936462 976.165405,641.894897 965.939148,663.897949 
	C962.851318,670.541748 961.749695,678.223206 960.462036,685.556396 
	C959.202454,692.730164 961.170898,699.433533 966.254517,705.539917 
	C957.135681,710.102539 947.993347,712.322266 938.251221,709.733582 
	C930.205750,707.595703 924.402344,697.699585 924.000610,686.006287 
	C923.487549,671.070435 927.034302,656.778931 932.900391,643.320862 
	C942.264954,621.836731 952.592163,600.771301 962.563354,579.552856 
	C967.161133,569.768982 972.099976,560.138550 976.442566,550.244690 
	C978.359009,545.878174 979.496643,541.091980 980.418396,536.384827 
	C981.829590,529.178101 978.633423,525.220337 971.286255,525.867615 
	C966.281250,526.308655 961.063660,527.664062 956.560730,529.873535 
	C940.889465,537.563110 928.365051,549.249146 917.346252,562.604614 
	C895.582764,588.983276 878.588440,618.316711 864.220276,649.220398 
	C858.050659,662.490417 852.131653,675.891602 846.592712,689.435303 
	C842.642151,699.095337 839.515808,709.092407 835.731628,719.755981 
	C823.300781,720.891235 809.819336,722.122437 795.299866,723.448425 
	C803.128113,701.788635 810.602234,681.108826 818.076294,660.428955 
	C817.916321,660.362427 817.756348,660.295837 817.596436,660.229248 
	C810.355286,669.537964 803.648865,679.332825 795.738770,688.033325 
	C785.687500,699.088867 774.928650,709.547607 763.947937,719.693298 
	C757.896912,725.284180 750.077637,728.006653 741.883606,729.573242 
	C722.839233,733.214355 710.427307,724.064392 709.143799,704.714600 
	C708.617554,696.781128 709.056763,688.783569 709.056763,680.887024 
	C708.699951,681.264587 707.842407,682.047607 707.129150,682.945251 
	C694.107178,699.332092 679.703796,714.309021 662.319153,726.139771 
	C650.968506,733.864319 638.569763,738.839478 624.615173,739.109436 
	C601.960693,739.547668 587.029358,726.918518 585.216919,704.285156 
	C584.377991,693.809448 586.003357,683.134521 586.551514,672.552002 
	C586.624512,671.141357 586.934143,669.742920 587.134216,668.338867 
	C586.666016,667.985107 586.197815,667.631348 585.729675,667.277588 
	C584.719604,668.760071 583.889709,670.412964 582.672729,671.699829 
	C560.538696,695.105286 537.489807,717.504761 510.581787,735.494812 
	C498.946106,743.274170 487.053772,750.762451 472.888550,753.113464 
	C446.016754,757.573425 427.701050,742.723694 425.945068,715.487366 
	C424.783936,697.477173 427.869049,680.169189 435.319275,663.913086 
	C457.771027,614.924072 492.631653,577.599792 541.650330,554.541626 
	C552.014099,549.666565 563.635559,547.058044 574.954773,544.788025 
	C580.889709,543.597961 587.582458,544.693481 593.653076,546.029053 
	C602.427185,547.959290 606.886841,554.495117 608.070984,563.186584 
	C609.529114,573.889587 606.144104,583.649841 601.442383,592.952637 
	C587.972229,619.604919 566.846008,638.711304 541.060974,652.947388 
	C524.911560,661.863647 507.931671,668.559265 489.173706,669.329773 
	C483.882019,669.547180 478.573792,669.362976 472.698059,669.362976 
	C468.862213,682.861084 464.827911,696.809692 467.930389,711.504883 
	C470.529449,723.815369 479.547241,729.317261 491.445251,725.215210 
	C498.582306,722.754517 505.518097,719.077576 511.783295,714.825806 
	C545.657532,691.837708 574.795898,663.534790 601.479492,632.704956 
	C607.846741,625.348389 611.967163,616.096619 617.810913,608.228943 
	C641.941467,575.740967 671.918762,550.519348 709.935791,535.608215 
	C720.086060,531.627075 730.555603,529.111938 741.605042,529.806396 
	C753.244019,530.538086 759.747559,536.326721 760.905762,548.033691 
	C761.507263,554.113464 761.011719,560.301697 761.011719,567.409424 
	C762.245178,565.661743 763.109436,564.596130 763.803345,563.429199 
	C770.355286,552.412415 776.814514,541.339661 783.485657,530.395996 
	C784.371704,528.942383 786.207275,527.290710 787.747009,527.132629 
	C803.447693,525.521057 819.178101,524.198975 834.900879,522.803223 
	C835.380005,522.760620 835.866211,522.797729 837.303101,522.797729 
	C835.370422,525.696411 833.899536,528.170837 832.172791,530.451599 
	C810.945312,558.489197 790.742310,587.190979 773.687805,618.032715 
	C761.606384,639.881042 752.055420,662.628784 747.572815,687.281128 
	C746.721252,691.964294 746.307800,696.902344 746.796814,701.607971 
	C747.355896,706.987549 751.014648,708.733521 755.800110,706.066406 
	C760.266174,703.577393 764.650574,700.642944 768.362854,697.151733 
	C785.893250,680.665161 801.253357,662.304260 815.165161,642.652893 
	C836.462830,612.568420 855.009094,580.863159 872.352173,548.381775 
	C877.593384,538.565674 884.037354,529.384338 890.105347,520.025696 
	C890.956848,518.712463 892.740967,517.340332 894.212097,517.194580 
	C909.751221,515.655396 925.314270,514.357666 940.872314,513.011536 
	C941.152161,512.987244 941.451172,513.184875 940.897278,513.005127 
	C930.343811,526.887268 919.624207,540.988098 908.580933,555.592651 
	C908.098206,556.652588 907.939026,557.208740 907.518433,557.887695 
	C907.282715,558.285828 907.308472,558.561035 907.334229,558.836304 
	C907.569580,558.572144 907.804993,558.307983 908.315552,557.968384 
	C908.915710,557.429871 909.240662,556.966797 909.565613,556.503723 
M674.974792,697.464966 
	C682.667358,689.874512 690.601929,682.511719 698.003296,674.647278 
	C714.513855,657.103699 726.223450,636.328125 735.717468,614.480591 
	C742.109680,599.770691 747.410095,584.405945 751.377319,568.869080 
	C756.168457,550.105713 747.237305,542.045349 728.515869,546.770691 
	C707.388367,552.103333 690.066589,564.028015 674.898010,579.130432 
	C655.072693,598.869141 641.829346,622.765076 632.749878,649.034851 
	C628.010559,662.747131 624.287048,676.718323 624.925049,691.451477 
	C625.610352,707.276428 634.732727,714.415283 650.126831,711.134888 
	C659.516785,709.133911 667.137268,703.813416 674.974792,697.464966 
M564.093384,599.590820 
	C569.776611,589.286194 575.746094,579.124390 580.996948,568.604004 
	C582.995300,564.600220 584.972107,559.253845 581.113586,555.440063 
	C577.186768,551.558899 571.593567,553.252380 567.451965,555.267639 
	C558.082764,559.826538 548.505554,564.427612 540.191162,570.598938 
	C512.074280,591.468567 493.125854,619.595459 478.865051,651.156006 
	C478.217560,652.588928 477.748352,654.102478 477.018005,656.054443 
	C480.146545,656.413391 482.764496,656.944275 485.388550,656.976746 
	C500.206787,657.160400 512.259705,650.060486 523.629211,641.739075 
	C539.354187,630.229980 552.325623,615.951965 564.093384,599.590820 
M1007.485718,565.879211 
	C1007.552429,565.690063 1007.619141,565.500854 1007.685913,565.311646 
	C1007.511841,565.367004 1007.337769,565.422302 1007.485718,565.879211 
z"/>
<path fill="#FFFFFF" opacity="1.000000" stroke="none" 
	d="
M491.153442,705.271362 
	C489.452698,705.973755 488.099213,706.507629 485.507477,707.529907 
	C486.051666,701.306641 486.407715,695.954590 487.094116,690.645203 
	C487.208496,689.760315 488.668121,688.529724 489.661560,688.357971 
	C500.722168,686.445618 511.813385,684.710205 523.360352,682.852356 
	C513.232727,691.028259 503.017670,698.954834 491.153442,705.271362 
z"/>
<path fill="#FFFFFF" opacity="1.000000" stroke="none" 
	d="
M1117.017578,609.025513 
	C1116.940063,609.509216 1116.680176,609.814636 1116.420166,610.120117 
	C1116.310913,609.756714 1116.201660,609.393311 1116.269653,608.772949 
	C1116.576294,608.626282 1116.705688,608.736755 1117.017578,609.025513 
z"/>
<path fill="#FFFFFF" opacity="1.000000" stroke="none" 
	d="
M775.067261,662.080627 
	C774.950806,662.503723 774.619263,662.725342 774.287781,662.947021 
	C774.221924,662.646667 774.156067,662.346375 774.240234,661.779602 
	C774.544250,661.635132 774.698181,661.757141 775.067261,662.080627 
z"/>
<path fill="#FFFFFF" opacity="1.000000" stroke="none" 
	d="
M524.510010,681.603394 
	C524.389343,681.665527 524.323120,681.406738 524.323120,681.406738 
	C524.323120,681.406738 524.630615,681.541260 524.510010,681.603394 
z"/>
<path fill="#FFFFFF" opacity="1.000000" stroke="none" 
	d="
M951.881592,555.860840 
	C952.009644,555.474121 952.383362,555.314087 952.757080,555.153992 
	C952.825928,555.432007 952.894714,555.710022 952.810791,556.240967 
	C952.481140,556.358459 952.304199,556.223022 951.881592,555.860840 
z"/>
<path fill="#FFFFFF" opacity="1.000000" stroke="none" 
	d="
M768.965698,739.956360 
	C769.079651,739.618835 769.380859,739.465698 769.682068,739.312500 
	C769.732910,739.558899 769.783752,739.805298 769.692749,740.267944 
	C769.418274,740.369751 769.285645,740.255249 768.965698,739.956360 
z"/>
<path fill="#FFFFFD" opacity="1.000000" stroke="none" 
	d="
M368.025574,388.957977 
	C393.884277,385.600586 419.315002,386.042419 444.757874,388.564331 
	C473.391357,391.402435 501.745056,397.290436 530.759521,395.961670 
	C560.805054,394.585724 590.632385,391.766937 618.947510,380.846710 
	C643.827393,371.251312 662.760986,354.643524 674.633240,330.451935 
	C675.140564,329.418152 675.722351,328.420959 676.240173,327.461121 
	C688.047546,329.218262 697.679810,340.392883 699.079712,353.191437 
	C700.582764,366.932526 695.095764,377.496552 684.930664,386.097351 
	C665.595764,402.456757 642.913513,411.339874 618.301147,416.026825 
	C589.735413,421.466644 560.943848,421.138123 532.154297,419.175232 
	C525.050903,418.690918 520.991211,420.320251 516.785706,426.403656 
	C464.740906,501.688995 418.052704,580.209534 373.796875,660.259827 
	C357.191040,690.296509 338.924896,719.371582 315.927124,745.137817 
	C294.707001,768.912415 270.640717,788.674744 238.878922,796.205200 
	C206.719177,803.830017 176.115005,798.321045 148.375000,780.697632 
	C128.661819,768.173645 118.330887,748.514954 113.741684,726.034241 
	C107.049522,693.251770 112.465118,662.485657 130.720596,634.240601 
	C145.325592,611.643555 166.513290,599.695740 192.835022,595.986694 
	C209.146606,593.688171 225.131439,594.384521 240.386383,601.026733 
	C257.943298,608.671082 271.738403,619.897339 275.521729,640.080017 
	C278.462433,655.767639 270.244263,673.838013 256.869995,681.267700 
	C255.328461,675.318542 254.258347,669.113586 252.101059,663.312988 
	C248.109009,652.579102 239.694412,646.979797 228.527756,646.013672 
	C201.581741,643.682434 182.043411,655.682678 169.433395,678.773865 
	C157.936981,699.825745 155.018723,721.964294 165.912155,744.376770 
	C178.523804,770.324341 202.132462,779.265015 228.922577,768.479126 
	C248.813995,760.470642 263.973663,746.255981 277.607361,730.311584 
	C301.761566,702.063538 320.402039,670.092651 338.901398,638.072083 
	C364.964355,592.959473 390.364624,547.456787 416.951294,502.656799 
	C433.624847,474.560883 452.431213,447.810120 476.184357,424.981934 
	C479.529572,421.766937 483.013397,418.696106 487.141968,414.908142 
	C480.611115,414.048920 474.801636,413.022125 468.947662,412.561798 
	C448.384308,410.944794 427.716248,407.532043 407.251770,408.450592 
	C367.513275,410.234283 337.057281,429.206024 317.316833,464.260803 
	C304.964386,486.196136 305.735352,508.195129 317.816406,529.908569 
	C321.526703,536.577148 326.074829,542.780518 330.261993,549.182129 
	C331.128021,550.506165 332.094482,551.764526 333.153442,553.247498 
	C304.372772,556.094360 277.155396,540.838806 266.928345,512.852539 
	C255.968170,482.859985 263.012421,441.211395 297.017151,415.760864 
	C316.257721,401.360443 337.887024,393.845947 361.172668,389.997223 
	C363.305786,389.644684 365.444977,389.328552 368.025574,388.957977 
z"/>
<path fill="#FFFFFD" opacity="1.000000" stroke="none" 
	d="
M375.830872,434.764404 
	C393.513641,426.436584 411.885437,426.014221 430.484161,427.387726 
	C435.445892,427.754181 440.393860,428.306549 446.244110,428.858032 
	C412.811401,468.845093 387.832306,513.399414 362.022522,558.375244 
	C359.919800,555.831665 357.973633,553.682068 356.255585,551.363403 
	C349.327393,542.013306 341.933777,532.951904 335.701447,523.154480 
	C324.062775,504.858185 325.029388,486.503113 336.693298,468.274078 
	C346.339600,453.198273 359.215424,442.154877 375.830872,434.764404 
z"/>
<path fill="#FF6A00" opacity="1.000000" stroke="none" 
	d="
M1802.299561,498.312073 
	C1817.817505,472.308472 1838.525269,452.899750 1867.125366,442.745575 
	C1869.623779,441.858490 1872.199097,441.140747 1874.787598,440.562653 
	C1890.044922,437.155060 1899.304932,444.467926 1899.793457,460.118958 
	C1896.609009,459.329529 1893.421875,458.005280 1890.178833,457.850037 
	C1884.013550,457.554871 1879.779175,461.041229 1877.308716,466.432343 
	C1874.941650,471.597565 1876.299316,476.202026 1880.482666,479.946777 
	C1889.571167,488.082275 1890.863770,497.831940 1887.114502,509.015167 
	C1879.840332,530.712158 1866.759888,548.902283 1852.872925,566.625305 
	C1843.269287,578.881470 1832.572510,590.014404 1819.166504,598.226501 
	C1812.215820,602.484192 1804.860352,605.137756 1796.484375,604.327148 
	C1789.247070,603.626892 1784.603271,599.836975 1781.788330,593.296326 
	C1778.154053,584.852112 1778.392578,576.016968 1779.350342,567.241638 
	C1782.020874,542.770813 1789.835083,519.942383 1802.299561,498.312073 
M1867.227539,493.446655 
	C1860.095947,486.873657 1857.074463,478.523071 1857.236084,468.165771 
	C1855.057983,469.464600 1853.610718,470.195007 1852.306641,471.126160 
	C1840.688477,479.421844 1830.537109,489.148132 1822.708252,501.200562 
	C1809.338745,521.782288 1801.087036,544.234314 1798.289185,568.593872 
	C1797.648071,574.175171 1798.235596,579.897522 1798.257690,585.554993 
	C1798.896851,585.820007 1799.536011,586.085022 1800.175171,586.350037 
	C1803.974365,584.450439 1808.203979,583.108948 1811.504761,580.563049 
	C1837.959839,560.157227 1856.772461,533.990173 1869.083740,503.036926 
	C1869.267700,502.574371 1869.593872,502.044312 1869.505371,501.617828 
	C1868.975830,499.061188 1868.343872,496.525665 1867.227539,493.446655 
z"/>
<path fill="#FF6A00" opacity="1.000000" stroke="none" 
	d="
M674.709473,697.703857 
	C667.137268,703.813416 659.516785,709.133911 650.126831,711.134888 
	C634.732727,714.415283 625.610352,707.276428 624.925049,691.451477 
	C624.287048,676.718323 628.010559,662.747131 632.749878,649.034851 
	C641.829346,622.765076 655.072693,598.869141 674.898010,579.130432 
	C690.066589,564.028015 707.388367,552.103333 728.515869,546.770691 
	C747.237305,542.045349 756.168457,550.105713 751.377319,568.869080 
	C747.410095,584.405945 742.109680,599.770691 735.717468,614.480591 
	C726.223450,636.328125 714.513855,657.103699 698.003296,674.647278 
	C690.601929,682.511719 682.667358,689.874512 674.709473,697.703857 
z"/>
<path fill="#FF6A00" opacity="1.000000" stroke="none" 
	d="
M563.892822,599.886597 
	C552.325623,615.951965 539.354187,630.229980 523.629211,641.739075 
	C512.259705,650.060486 500.206787,657.160400 485.388550,656.976746 
	C482.764496,656.944275 480.146545,656.413391 477.018005,656.054443 
	C477.748352,654.102478 478.217560,652.588928 478.865051,651.156006 
	C493.125854,619.595459 512.074280,591.468567 540.191162,570.598938 
	C548.505554,564.427612 558.082764,559.826538 567.451965,555.267639 
	C571.593567,553.252380 577.186768,551.558899 581.113586,555.440063 
	C584.972107,559.253845 582.995300,564.600220 580.996948,568.604004 
	C575.746094,579.124390 569.776611,589.286194 563.892822,599.886597 
M519.100525,621.300232 
	C529.429321,612.601868 538.571594,602.867676 545.645020,591.315002 
	C534.698120,599.617188 525.180847,609.223633 517.359680,621.156250 
	C517.372009,621.429077 517.384277,621.701904 517.396606,621.974731 
	C517.763184,621.853210 518.129822,621.731689 519.100525,621.300232 
M516.357178,623.338684 
	C516.357178,623.338684 516.501709,623.425293 516.501709,623.425293 
	C516.501709,623.425293 516.473755,623.207947 516.357178,623.338684 
z"/>
<path fill="#FF6A00" opacity="1.000000" stroke="none" 
	d="
M907.779907,557.764832 
	C907.939026,557.208740 908.098206,556.652588 908.503906,555.932800 
	C908.886902,555.889954 909.023376,556.010681 909.362732,556.317627 
	C909.240662,556.966797 908.915710,557.429871 908.250183,557.898926 
	C907.909607,557.904846 907.779846,557.764832 907.779907,557.764832 
z"/>
<path fill="#FF6A00" opacity="1.000000" stroke="none" 
	d="
M1007.324707,565.678406 
	C1007.337769,565.422302 1007.511841,565.367004 1007.685913,565.311646 
	C1007.619141,565.500854 1007.552429,565.690063 1007.324707,565.678406 
z"/>
<path fill="#FF6A00" opacity="1.000000" stroke="none" 
	d="
M907.974976,557.974365 
	C907.804993,558.307983 907.569580,558.572144 907.334229,558.836304 
	C907.308472,558.561035 907.282715,558.285828 907.518433,557.887695 
	C907.779846,557.764832 907.909607,557.904846 907.974976,557.974365 
z"/>
<path fill="#FFFFFD" opacity="1.000000" stroke="none" 
	d="
M1867.486938,493.714874 
	C1868.343872,496.525665 1868.975830,499.061188 1869.505371,501.617828 
	C1869.593872,502.044312 1869.267700,502.574371 1869.083740,503.036926 
	C1856.772461,533.990173 1837.959839,560.157227 1811.504761,580.563049 
	C1808.203979,583.108948 1803.974365,584.450439 1800.175171,586.350037 
	C1799.536011,586.085022 1798.896851,585.820007 1798.257690,585.554993 
	C1798.235596,579.897522 1797.648071,574.175171 1798.289185,568.593872 
	C1801.087036,544.234314 1809.338745,521.782288 1822.708252,501.200562 
	C1830.537109,489.148132 1840.688477,479.421844 1852.306641,471.126160 
	C1853.610718,470.195007 1855.057983,469.464600 1857.236084,468.165771 
	C1857.074463,478.523071 1860.095947,486.873657 1867.486938,493.714874 
z"/>
<path fill="#FFFFFF" opacity="1.000000" stroke="none" 
	d="
M517.824585,620.838745 
	C525.180847,609.223633 534.698120,599.617188 545.645020,591.315002 
	C538.571594,602.867676 529.429321,612.601868 518.641296,621.252991 
	C518.062866,621.083374 517.943726,620.961060 517.824585,620.838745 
z"/>
<path fill="#FFFFFF" opacity="1.000000" stroke="none" 
	d="
M518.339233,621.407959 
	C518.129822,621.731689 517.763184,621.853210 517.396606,621.974731 
	C517.384277,621.701904 517.372009,621.429077 517.592163,620.997498 
	C517.943726,620.961060 518.062866,621.083374 518.339233,621.407959 
z"/>
<path fill="#FFFFFF" opacity="1.000000" stroke="none" 
	d="
M516.415466,623.273315 
	C516.473755,623.207947 516.501709,623.425293 516.501709,623.425293 
	C516.501709,623.425293 516.357178,623.338684 516.415466,623.273315 
z"/>
</svg>